<svg xmlns="http://www.w3.org/2000/svg" width="375" viewBox="0 0 375 375" height="375" version="1.0"><defs><clipPath id="a"><path d="M 27.289062 137.183594 L 117.289062 137.183594 L 117.289062 221 L 27.289062 221 Z M 27.289062 137.183594"/></clipPath><clipPath id="b"><path d="M 42 167 L 88 167 L 88 237.683594 L 42 237.683594 Z M 42 167"/></clipPath></defs><g clip-path="url(#a)"><path fill="#D9D9D9" d="M 86.410156 211.796875 C 103.90625 208.636719 117.289062 193.203125 117.289062 174.785156 C 117.289062 154.109375 100.414062 137.1875 79.789062 137.1875 L 27.289062 137.1875 L 42.289062 152.230469 L 79.789062 152.230469 C 92.164062 152.230469 102.289062 162.378906 102.289062 174.789062 C 102.289062 187.195312 92.164062 197.347656 79.789062 197.347656 L 72.289062 197.347656 L 72.289062 220.308594 L 87.289062 211.625 C 87 211.683594 86.707031 211.742188 86.410156 211.796875 Z M 86.410156 211.796875" fill-rule="evenodd"/></g><g clip-path="url(#b)"><path fill="#41B9FF" d="M 57.289062 212.386719 C 57.289062 202.359375 57.289062 192.332031 57.289062 182.308594 L 79.789062 182.308594 C 83.914062 182.308594 87.289062 178.925781 87.289062 174.789062 C 87.289062 170.652344 83.914062 167.269531 79.789062 167.269531 L 42.289062 167.269531 C 42.289062 182.308594 42.289062 197.347656 42.289062 212.386719 L 42.289062 237.675781 L 57.289062 228.992188 Z M 57.289062 212.386719" fill-rule="evenodd"/></g><g fill="#41B9FF"><g><g><path d="M 2.1875 -28.015625 L 15.0625 -28.015625 C 19.332031 -28.015625 21.46875 -26.210938 21.46875 -22.609375 L 21.46875 -5.40625 C 21.46875 -1.800781 19.332031 0 15.0625 0 L 2.1875 0 Z M 13.828125 -5.984375 L 13.828125 -22.03125 C 13.828125 -22.675781 13.46875 -23 12.75 -23 L 9.8125 -23 L 9.8125 -5.015625 L 12.75 -5.015625 C 13.46875 -5.015625 13.828125 -5.335938 13.828125 -5.984375 Z M 13.828125 -5.984375" transform="translate(121.964 177.068)"/></g></g></g><g fill="#41B9FF"><g><g><path d="M 9.375 -5.453125 L 18.9375 -5.453125 L 18.9375 0 L 1.75 0 L 1.75 -28.015625 L 18.546875 -28.015625 L 18.546875 -22.5625 L 9.375 -22.5625 L 9.375 -16.84375 L 17.28125 -16.84375 L 17.28125 -11.390625 L 9.375 -11.390625 Z M 9.375 -5.453125" transform="translate(151.153 177.068)"/></g></g></g><g fill="#41B9FF"><g><g><path d="M 9.375 -5.453125 L 18.0625 -5.453125 L 18.0625 0 L 1.75 0 L 1.75 -28.015625 L 9.375 -28.015625 Z M 9.375 -5.453125" transform="translate(176.852 177.068)"/></g></g></g><g fill="#41B9FF"><g><g><path d="M 1.75 -28.015625 L 9.375 -28.015625 L 9.375 0 L 1.75 0 Z M 1.75 -28.015625" transform="translate(201.024 177.068)"/></g></g></g><g fill="#41B9FF"><g><g><path d="M 8.546875 0 L 1.75 0 L 1.75 -28.015625 L 10.078125 -28.015625 L 14.625 -13.046875 L 19.15625 -28.015625 L 27.5 -28.015625 L 27.5 0 L 20.734375 0 L 20.734375 -17.8125 L 17.234375 -6.0625 L 12 -6.0625 L 8.546875 -17.71875 Z M 8.546875 0" transform="translate(218.258 177.068)"/></g></g></g><g fill="#41B9FF"><g><g><path d="M 16.015625 0 L 15.140625 -4.1875 L 8.421875 -4.1875 L 7.5 0 L 0 0 L 7.203125 -28.015625 L 16.5 -28.015625 L 23.703125 0 Z M 9.59375 -9.59375 L 13.96875 -9.59375 L 11.828125 -19.6875 Z M 9.59375 -9.59375" transform="translate(253.599 177.068)"/></g></g></g><g fill="#41B9FF"><g><g><path d="M 14.53125 -28.015625 L 21.515625 -28.015625 L 21.515625 0 L 14.96875 0 L 8.734375 -14.703125 L 8.734375 0 L 1.75 0 L 1.75 -28.015625 L 8.296875 -28.015625 L 14.53125 -13.046875 Z M 14.53125 -28.015625" transform="translate(283.399 177.068)"/></g></g></g><g fill="#41B9FF"><g><g><path d="M 0.4375 -11.21875 L 8.078125 -11.21875 L 8.078125 -6.421875 C 8.078125 -5.773438 8.441406 -5.453125 9.171875 -5.453125 L 9.640625 -5.453125 C 10.367188 -5.453125 10.734375 -5.773438 10.734375 -6.421875 L 10.734375 -28.015625 L 18.375 -28.015625 L 18.375 -5.40625 C 18.375 -1.800781 16.234375 0 11.953125 0 L 6.859375 0 C 2.578125 0 0.4375 -1.800781 0.4375 -5.40625 Z M 0.4375 -11.21875" transform="translate(312.762 177.068)"/></g></g></g><g fill="#41B9FF"><g><g><path d="M 8.03125 -28.015625 L 14.484375 -28.015625 C 18.765625 -28.015625 20.90625 -26.210938 20.90625 -22.609375 L 20.90625 -5.40625 C 20.90625 -1.800781 18.765625 0 14.484375 0 L 8.03125 0 C 3.75 0 1.609375 -1.800781 1.609375 -5.40625 L 1.609375 -22.609375 C 1.609375 -26.210938 3.75 -28.015625 8.03125 -28.015625 Z M 13.265625 -6.421875 L 13.265625 -21.609375 C 13.265625 -22.242188 12.898438 -22.5625 12.171875 -22.5625 L 10.34375 -22.5625 C 9.613281 -22.5625 9.25 -22.242188 9.25 -21.609375 L 9.25 -6.421875 C 9.25 -5.773438 9.613281 -5.453125 10.34375 -5.453125 L 12.171875 -5.453125 C 12.898438 -5.453125 13.265625 -5.773438 13.265625 -6.421875 Z M 13.265625 -6.421875" transform="translate(338.81 177.068)"/></g></g></g><g fill="#D9D9D9"><g><g><path d="M 7.890625 -11.890625 C 9.492188 -11.890625 10.640625 -11.910156 11.328125 -11.953125 C 11.066406 -11.253906 10.847656 -10.566406 10.671875 -9.890625 C 10.472656 -9.179688 10.351562 -8.6875 10.3125 -8.40625 L 9.921875 -8.40625 C 9.960938 -8.75 9.984375 -9.09375 9.984375 -9.4375 C 9.984375 -10.207031 9.828125 -10.753906 9.515625 -11.078125 C 9.210938 -11.398438 8.707031 -11.5625 8 -11.5625 L 7.609375 -11.5625 C 7.234375 -11.5625 6.953125 -11.53125 6.765625 -11.46875 C 6.585938 -11.40625 6.441406 -11.273438 6.328125 -11.078125 C 6.210938 -10.890625 6.101562 -10.582031 6 -10.15625 L 4.921875 -6.109375 L 5.703125 -6.109375 C 6.242188 -6.109375 6.695312 -6.289062 7.0625 -6.65625 C 7.4375 -7.03125 7.753906 -7.523438 8.015625 -8.140625 L 8.390625 -8.140625 C 8.222656 -7.609375 8.015625 -6.875 7.765625 -5.9375 C 7.660156 -5.507812 7.484375 -4.675781 7.234375 -3.4375 L 6.875 -3.4375 C 6.90625 -4.207031 6.828125 -4.785156 6.640625 -5.171875 C 6.453125 -5.566406 6.078125 -5.765625 5.515625 -5.765625 L 4.84375 -5.765625 L 3.78125 -1.78125 C 3.6875 -1.445312 3.640625 -1.203125 3.640625 -1.046875 C 3.640625 -0.773438 3.742188 -0.59375 3.953125 -0.5 C 4.160156 -0.414062 4.539062 -0.363281 5.09375 -0.34375 L 5.03125 0 C 4.34375 -0.03125 3.34375 -0.046875 2.03125 -0.046875 C 0.789062 -0.046875 -0.125 -0.03125 -0.71875 0 L -0.640625 -0.34375 C -0.234375 -0.363281 0.0664062 -0.40625 0.265625 -0.46875 C 0.460938 -0.539062 0.617188 -0.671875 0.734375 -0.859375 C 0.859375 -1.046875 0.976562 -1.351562 1.09375 -1.78125 L 3.328125 -10.15625 C 3.410156 -10.539062 3.453125 -10.8125 3.453125 -10.96875 C 3.453125 -11.21875 3.367188 -11.378906 3.203125 -11.453125 C 3.046875 -11.535156 2.753906 -11.585938 2.328125 -11.609375 L 2.40625 -11.953125 C 3.632812 -11.910156 5.460938 -11.890625 7.890625 -11.890625 Z M 7.890625 -11.890625" transform="translate(125.325 204.534)"/></g></g></g><g fill="#D9D9D9"><g><g><path d="M 0.703125 -3.8125 C 0.703125 -5.082031 1.023438 -6.367188 1.671875 -7.671875 C 2.328125 -8.984375 3.238281 -10.0625 4.40625 -10.90625 C 5.570312 -11.757812 6.890625 -12.1875 8.359375 -12.1875 C 9.796875 -12.1875 10.914062 -11.832031 11.71875 -11.125 C 12.53125 -10.414062 12.9375 -9.410156 12.9375 -8.109375 C 12.9375 -6.835938 12.609375 -5.550781 11.953125 -4.25 C 11.304688 -2.957031 10.394531 -1.882812 9.21875 -1.03125 C 8.050781 -0.1875 6.738281 0.234375 5.28125 0.234375 C 3.84375 0.234375 2.71875 -0.117188 1.90625 -0.828125 C 1.101562 -1.535156 0.703125 -2.53125 0.703125 -3.8125 Z M 8.203125 -11.875 C 7.429688 -11.875 6.691406 -11.46875 5.984375 -10.65625 C 5.273438 -9.851562 4.703125 -8.8125 4.265625 -7.53125 C 3.828125 -6.25 3.609375 -4.9375 3.609375 -3.59375 C 3.609375 -2.5 3.773438 -1.632812 4.109375 -1 C 4.453125 -0.375 4.894531 -0.0625 5.4375 -0.0625 C 6.195312 -0.0625 6.929688 -0.46875 7.640625 -1.28125 C 8.347656 -2.09375 8.921875 -3.140625 9.359375 -4.421875 C 9.804688 -5.703125 10.03125 -7.015625 10.03125 -8.359375 C 10.03125 -9.441406 9.859375 -10.296875 9.515625 -10.921875 C 9.179688 -11.554688 8.742188 -11.875 8.203125 -11.875 Z M 8.203125 -11.875" transform="translate(136.092 204.534)"/></g></g></g><g fill="#D9D9D9"><g><g><path d="M 11.046875 -2.046875 L 11.4375 -2.046875 L 11.375 -1.828125 C 11.15625 -1.117188 10.84375 -0.597656 10.4375 -0.265625 C 10.039062 0.0664062 9.492188 0.234375 8.796875 0.234375 C 8.109375 0.234375 7.59375 0.0859375 7.25 -0.203125 C 6.90625 -0.492188 6.734375 -0.894531 6.734375 -1.40625 C 6.734375 -1.550781 6.738281 -1.65625 6.75 -1.71875 L 7 -3.640625 C 7.019531 -3.910156 7.03125 -4.097656 7.03125 -4.203125 C 7.03125 -4.722656 6.867188 -5.101562 6.546875 -5.34375 C 6.234375 -5.582031 5.660156 -5.710938 4.828125 -5.734375 L 3.78125 -1.78125 C 3.664062 -1.394531 3.609375 -1.125 3.609375 -0.96875 C 3.609375 -0.75 3.691406 -0.59375 3.859375 -0.5 C 4.035156 -0.40625 4.335938 -0.351562 4.765625 -0.34375 L 4.6875 0 C 4.007812 -0.03125 3.132812 -0.046875 2.0625 -0.046875 C 0.8125 -0.046875 -0.109375 -0.03125 -0.703125 0 L -0.640625 -0.34375 C -0.234375 -0.363281 0.0664062 -0.40625 0.265625 -0.46875 C 0.472656 -0.539062 0.632812 -0.671875 0.75 -0.859375 C 0.863281 -1.046875 0.976562 -1.351562 1.09375 -1.78125 L 3.3125 -10.15625 C 3.40625 -10.5625 3.453125 -10.828125 3.453125 -10.953125 C 3.453125 -11.179688 3.367188 -11.34375 3.203125 -11.4375 C 3.046875 -11.539062 2.753906 -11.597656 2.328125 -11.609375 L 2.40625 -11.953125 C 2.988281 -11.910156 3.84375 -11.890625 4.96875 -11.890625 L 6.40625 -11.90625 C 6.664062 -11.925781 7.03125 -11.9375 7.5 -11.9375 C 8.863281 -11.9375 9.875 -11.742188 10.53125 -11.359375 C 11.195312 -10.972656 11.53125 -10.378906 11.53125 -9.578125 C 11.53125 -8.585938 11.082031 -7.757812 10.1875 -7.09375 C 9.289062 -6.425781 8.082031 -6.007812 6.5625 -5.84375 C 7.582031 -5.738281 8.359375 -5.550781 8.890625 -5.28125 C 9.421875 -5.007812 9.6875 -4.539062 9.6875 -3.875 C 9.6875 -3.8125 9.675781 -3.691406 9.65625 -3.515625 L 9.421875 -1.765625 C 9.410156 -1.679688 9.40625 -1.5625 9.40625 -1.40625 C 9.40625 -0.863281 9.582031 -0.59375 9.9375 -0.59375 C 10.15625 -0.59375 10.34375 -0.691406 10.5 -0.890625 C 10.65625 -1.085938 10.8125 -1.394531 10.96875 -1.8125 Z M 4.890625 -6.046875 L 5.03125 -6.046875 C 6.164062 -6.046875 7.078125 -6.378906 7.765625 -7.046875 C 8.460938 -7.710938 8.8125 -8.644531 8.8125 -9.84375 C 8.8125 -10.445312 8.679688 -10.890625 8.421875 -11.171875 C 8.160156 -11.460938 7.765625 -11.609375 7.234375 -11.609375 C 6.898438 -11.609375 6.648438 -11.53125 6.484375 -11.375 C 6.328125 -11.226562 6.191406 -10.9375 6.078125 -10.5 Z M 4.890625 -6.046875" transform="translate(150.047 204.534)"/></g></g></g><g fill="#D9D9D9"><g><g><path d="M 12.1875 -12.1875 C 12.664062 -12.1875 13.046875 -12.046875 13.328125 -11.765625 C 13.609375 -11.492188 13.75 -11.148438 13.75 -10.734375 C 13.75 -10.304688 13.601562 -9.945312 13.3125 -9.65625 C 13.03125 -9.363281 12.664062 -9.21875 12.21875 -9.21875 C 11.84375 -9.21875 11.550781 -9.304688 11.34375 -9.484375 C 11.144531 -9.671875 11.046875 -9.925781 11.046875 -10.25 C 11.054688 -10.613281 11.179688 -10.929688 11.421875 -11.203125 C 11.660156 -11.484375 11.960938 -11.679688 12.328125 -11.796875 C 12.273438 -11.835938 12.179688 -11.859375 12.046875 -11.859375 C 11.710938 -11.859375 11.375 -11.726562 11.03125 -11.46875 C 10.53125 -11.113281 9.957031 -10.421875 9.3125 -9.390625 C 8.675781 -8.359375 8.097656 -7.085938 7.578125 -5.578125 L 6.609375 -1.78125 C 6.546875 -1.519531 6.515625 -1.296875 6.515625 -1.109375 C 6.515625 -0.816406 6.609375 -0.617188 6.796875 -0.515625 C 6.992188 -0.421875 7.332031 -0.363281 7.8125 -0.34375 L 7.734375 0 C 7.085938 -0.03125 6.117188 -0.046875 4.828125 -0.046875 C 3.609375 -0.046875 2.703125 -0.03125 2.109375 0 L 2.1875 -0.34375 C 2.59375 -0.363281 2.894531 -0.40625 3.09375 -0.46875 C 3.300781 -0.539062 3.46875 -0.675781 3.59375 -0.875 C 3.71875 -1.070312 3.832031 -1.375 3.9375 -1.78125 L 4.84375 -5.421875 C 4.664062 -6.960938 4.414062 -8.265625 4.09375 -9.328125 C 3.78125 -10.398438 3.382812 -10.9375 2.90625 -10.9375 C 2.707031 -10.9375 2.550781 -10.867188 2.4375 -10.734375 C 2.320312 -10.597656 2.21875 -10.398438 2.125 -10.140625 L 1.765625 -9.078125 L 1.40625 -9.078125 L 1.828125 -10.375 C 2.035156 -11.019531 2.335938 -11.484375 2.734375 -11.765625 C 3.140625 -12.046875 3.628906 -12.1875 4.203125 -12.1875 C 4.929688 -12.1875 5.503906 -11.957031 5.921875 -11.5 C 6.347656 -11.039062 6.664062 -10.390625 6.875 -9.546875 C 7.082031 -8.710938 7.265625 -7.582031 7.421875 -6.15625 C 7.796875 -7.21875 8.21875 -8.171875 8.6875 -9.015625 C 9.164062 -9.859375 9.664062 -10.566406 10.1875 -11.140625 C 10.832031 -11.835938 11.5 -12.1875 12.1875 -12.1875 Z M 12.1875 -12.1875" transform="translate(168.037 204.534)"/></g></g></g><g fill="#D9D9D9"><g><g><path d="M 0.703125 -3.8125 C 0.703125 -5.082031 1.023438 -6.367188 1.671875 -7.671875 C 2.328125 -8.984375 3.238281 -10.0625 4.40625 -10.90625 C 5.570312 -11.757812 6.890625 -12.1875 8.359375 -12.1875 C 9.796875 -12.1875 10.914062 -11.832031 11.71875 -11.125 C 12.53125 -10.414062 12.9375 -9.410156 12.9375 -8.109375 C 12.9375 -6.835938 12.609375 -5.550781 11.953125 -4.25 C 11.304688 -2.957031 10.394531 -1.882812 9.21875 -1.03125 C 8.050781 -0.1875 6.738281 0.234375 5.28125 0.234375 C 3.84375 0.234375 2.71875 -0.117188 1.90625 -0.828125 C 1.101562 -1.535156 0.703125 -2.53125 0.703125 -3.8125 Z M 8.203125 -11.875 C 7.429688 -11.875 6.691406 -11.46875 5.984375 -10.65625 C 5.273438 -9.851562 4.703125 -8.8125 4.265625 -7.53125 C 3.828125 -6.25 3.609375 -4.9375 3.609375 -3.59375 C 3.609375 -2.5 3.773438 -1.632812 4.109375 -1 C 4.453125 -0.375 4.894531 -0.0625 5.4375 -0.0625 C 6.195312 -0.0625 6.929688 -0.46875 7.640625 -1.28125 C 8.347656 -2.09375 8.921875 -3.140625 9.359375 -4.421875 C 9.804688 -5.703125 10.03125 -7.015625 10.03125 -8.359375 C 10.03125 -9.441406 9.859375 -10.296875 9.515625 -10.921875 C 9.179688 -11.554688 8.742188 -11.875 8.203125 -11.875 Z M 8.203125 -11.875" transform="translate(181.267 204.534)"/></g></g></g><g fill="#D9D9D9"><g><g><path d="M 10.84375 -9.1875 C 11.03125 -9.84375 11.125 -10.316406 11.125 -10.609375 C 11.125 -10.941406 11.023438 -11.175781 10.828125 -11.3125 C 10.640625 -11.457031 10.3125 -11.554688 9.84375 -11.609375 L 9.921875 -11.953125 C 10.335938 -11.910156 10.941406 -11.890625 11.734375 -11.890625 C 12.347656 -11.890625 12.84375 -11.910156 13.21875 -11.953125 L 13.125 -11.609375 C 12.75 -11.554688 12.453125 -11.460938 12.234375 -11.328125 C 12.015625 -11.191406 11.832031 -10.976562 11.6875 -10.6875 C 11.550781 -10.394531 11.410156 -9.957031 11.265625 -9.375 L 10.125 -4.90625 C 9.71875 -3.351562 9.164062 -2.160156 8.46875 -1.328125 C 8.050781 -0.847656 7.539062 -0.46875 6.9375 -0.1875 C 6.34375 0.09375 5.703125 0.234375 5.015625 0.234375 C 4.191406 0.234375 3.503906 0.117188 2.953125 -0.109375 C 2.398438 -0.335938 1.988281 -0.664062 1.71875 -1.09375 C 1.414062 -1.53125 1.265625 -2.054688 1.265625 -2.671875 C 1.265625 -3.203125 1.390625 -3.929688 1.640625 -4.859375 L 3.03125 -10.15625 C 3.125 -10.539062 3.171875 -10.8125 3.171875 -10.96875 C 3.171875 -11.21875 3.085938 -11.378906 2.921875 -11.453125 C 2.765625 -11.535156 2.472656 -11.585938 2.046875 -11.609375 L 2.140625 -11.953125 C 2.710938 -11.910156 3.640625 -11.890625 4.921875 -11.890625 C 5.972656 -11.890625 6.847656 -11.910156 7.546875 -11.953125 L 7.4375 -11.609375 C 7.019531 -11.585938 6.710938 -11.539062 6.515625 -11.46875 C 6.328125 -11.40625 6.171875 -11.273438 6.046875 -11.078125 C 5.929688 -10.890625 5.816406 -10.582031 5.703125 -10.15625 L 4.21875 -4.578125 C 3.945312 -3.585938 3.8125 -2.765625 3.8125 -2.109375 C 3.8125 -1.523438 3.9375 -1.085938 4.1875 -0.796875 C 4.4375 -0.503906 4.816406 -0.359375 5.328125 -0.359375 C 6.515625 -0.359375 7.445312 -0.738281 8.125 -1.5 C 8.800781 -2.269531 9.320312 -3.34375 9.6875 -4.71875 Z M 10.84375 -9.1875" transform="translate(195.223 204.534)"/></g></g></g><g fill="#D9D9D9"><g><g><path d="M 11.046875 -2.046875 L 11.4375 -2.046875 L 11.375 -1.828125 C 11.15625 -1.117188 10.84375 -0.597656 10.4375 -0.265625 C 10.039062 0.0664062 9.492188 0.234375 8.796875 0.234375 C 8.109375 0.234375 7.59375 0.0859375 7.25 -0.203125 C 6.90625 -0.492188 6.734375 -0.894531 6.734375 -1.40625 C 6.734375 -1.550781 6.738281 -1.65625 6.75 -1.71875 L 7 -3.640625 C 7.019531 -3.910156 7.03125 -4.097656 7.03125 -4.203125 C 7.03125 -4.722656 6.867188 -5.101562 6.546875 -5.34375 C 6.234375 -5.582031 5.660156 -5.710938 4.828125 -5.734375 L 3.78125 -1.78125 C 3.664062 -1.394531 3.609375 -1.125 3.609375 -0.96875 C 3.609375 -0.75 3.691406 -0.59375 3.859375 -0.5 C 4.035156 -0.40625 4.335938 -0.351562 4.765625 -0.34375 L 4.6875 0 C 4.007812 -0.03125 3.132812 -0.046875 2.0625 -0.046875 C 0.8125 -0.046875 -0.109375 -0.03125 -0.703125 0 L -0.640625 -0.34375 C -0.234375 -0.363281 0.0664062 -0.40625 0.265625 -0.46875 C 0.472656 -0.539062 0.632812 -0.671875 0.75 -0.859375 C 0.863281 -1.046875 0.976562 -1.351562 1.09375 -1.78125 L 3.3125 -10.15625 C 3.40625 -10.5625 3.453125 -10.828125 3.453125 -10.953125 C 3.453125 -11.179688 3.367188 -11.34375 3.203125 -11.4375 C 3.046875 -11.539062 2.753906 -11.597656 2.328125 -11.609375 L 2.40625 -11.953125 C 2.988281 -11.910156 3.84375 -11.890625 4.96875 -11.890625 L 6.40625 -11.90625 C 6.664062 -11.925781 7.03125 -11.9375 7.5 -11.9375 C 8.863281 -11.9375 9.875 -11.742188 10.53125 -11.359375 C 11.195312 -10.972656 11.53125 -10.378906 11.53125 -9.578125 C 11.53125 -8.585938 11.082031 -7.757812 10.1875 -7.09375 C 9.289062 -6.425781 8.082031 -6.007812 6.5625 -5.84375 C 7.582031 -5.738281 8.359375 -5.550781 8.890625 -5.28125 C 9.421875 -5.007812 9.6875 -4.539062 9.6875 -3.875 C 9.6875 -3.8125 9.675781 -3.691406 9.65625 -3.515625 L 9.421875 -1.765625 C 9.410156 -1.679688 9.40625 -1.5625 9.40625 -1.40625 C 9.40625 -0.863281 9.582031 -0.59375 9.9375 -0.59375 C 10.15625 -0.59375 10.34375 -0.691406 10.5 -0.890625 C 10.65625 -1.085938 10.8125 -1.394531 10.96875 -1.8125 Z M 4.890625 -6.046875 L 5.03125 -6.046875 C 6.164062 -6.046875 7.078125 -6.378906 7.765625 -7.046875 C 8.460938 -7.710938 8.8125 -8.644531 8.8125 -9.84375 C 8.8125 -10.445312 8.679688 -10.890625 8.421875 -11.171875 C 8.160156 -11.460938 7.765625 -11.609375 7.234375 -11.609375 C 6.898438 -11.609375 6.648438 -11.53125 6.484375 -11.375 C 6.328125 -11.226562 6.191406 -10.9375 6.078125 -10.5 Z M 4.890625 -6.046875" transform="translate(207.778 204.534)"/></g></g></g><g fill="#D9D9D9"><g><g><path d="M 10.46875 -12.0625 C 10.039062 -10.988281 9.707031 -9.84375 9.46875 -8.625 L 9.125 -8.625 C 9.195312 -8.945312 9.234375 -9.257812 9.234375 -9.5625 C 9.234375 -10.238281 9.023438 -10.773438 8.609375 -11.171875 C 8.191406 -11.578125 7.59375 -11.78125 6.8125 -11.78125 C 6.207031 -11.78125 5.71875 -11.628906 5.34375 -11.328125 C 4.96875 -11.023438 4.78125 -10.5625 4.78125 -9.9375 C 4.78125 -9.414062 4.929688 -8.925781 5.234375 -8.46875 C 5.546875 -8.019531 6.019531 -7.457031 6.65625 -6.78125 C 7.125 -6.289062 7.492188 -5.875 7.765625 -5.53125 C 8.035156 -5.195312 8.265625 -4.828125 8.453125 -4.421875 C 8.640625 -4.015625 8.734375 -3.585938 8.734375 -3.140625 C 8.734375 -2.390625 8.492188 -1.757812 8.015625 -1.25 C 7.535156 -0.738281 6.9375 -0.363281 6.21875 -0.125 C 5.5 0.113281 4.785156 0.234375 4.078125 0.234375 C 3.359375 0.234375 2.800781 0.171875 2.40625 0.046875 C 2.019531 -0.078125 1.609375 -0.273438 1.171875 -0.546875 C 0.921875 -0.710938 0.722656 -0.796875 0.578125 -0.796875 C 0.429688 -0.796875 0.3125 -0.734375 0.21875 -0.609375 C 0.132812 -0.492188 0.015625 -0.25 -0.140625 0.125 L -0.46875 0.125 C -0.289062 -0.300781 -0.113281 -0.816406 0.0625 -1.421875 C 0.238281 -2.023438 0.441406 -2.863281 0.671875 -3.9375 L 1.015625 -3.9375 C 0.910156 -3.507812 0.859375 -3.109375 0.859375 -2.734375 C 0.859375 -1.890625 1.09375 -1.242188 1.5625 -0.796875 C 2.03125 -0.359375 2.710938 -0.140625 3.609375 -0.140625 C 5.054688 -0.140625 5.78125 -0.726562 5.78125 -1.90625 C 5.78125 -2.539062 5.628906 -3.109375 5.328125 -3.609375 C 5.035156 -4.109375 4.59375 -4.679688 4 -5.328125 C 3.59375 -5.796875 3.269531 -6.179688 3.03125 -6.484375 C 2.800781 -6.796875 2.601562 -7.148438 2.4375 -7.546875 C 2.269531 -7.941406 2.1875 -8.363281 2.1875 -8.8125 C 2.1875 -9.53125 2.390625 -10.144531 2.796875 -10.65625 C 3.210938 -11.164062 3.738281 -11.546875 4.375 -11.796875 C 5.019531 -12.054688 5.675781 -12.1875 6.34375 -12.1875 C 6.925781 -12.1875 7.425781 -12.117188 7.84375 -11.984375 C 8.257812 -11.847656 8.648438 -11.664062 9.015625 -11.4375 C 9.304688 -11.257812 9.488281 -11.171875 9.5625 -11.171875 C 9.65625 -11.171875 9.742188 -11.238281 9.828125 -11.375 C 9.910156 -11.519531 10.007812 -11.75 10.125 -12.0625 Z M 10.46875 -12.0625" transform="translate(225.767 204.534)"/></g></g></g><g fill="#D9D9D9"><g><g><path d="M 9 -1.421875 C 9.03125 -1.046875 9.125 -0.773438 9.28125 -0.609375 C 9.4375 -0.441406 9.617188 -0.351562 9.828125 -0.34375 L 9.75 0 C 9.175781 -0.03125 8.363281 -0.046875 7.3125 -0.046875 C 6.15625 -0.046875 5.3125 -0.03125 4.78125 0 L 4.84375 -0.34375 C 5.226562 -0.363281 5.523438 -0.410156 5.734375 -0.484375 C 5.953125 -0.554688 6.101562 -0.691406 6.1875 -0.890625 C 6.28125 -1.085938 6.316406 -1.375 6.296875 -1.75 L 6.140625 -4.515625 L 2.5 -4.515625 L 1.015625 -2.40625 C 0.648438 -1.90625 0.46875 -1.492188 0.46875 -1.171875 C 0.46875 -0.898438 0.585938 -0.695312 0.828125 -0.5625 C 1.078125 -0.4375 1.429688 -0.363281 1.890625 -0.34375 L 1.8125 0 C 0.863281 -0.03125 0.128906 -0.046875 -0.390625 -0.046875 C -0.804688 -0.046875 -1.191406 -0.03125 -1.546875 0 L -1.484375 -0.34375 C -1.191406 -0.414062 -0.90625 -0.582031 -0.625 -0.84375 C -0.351562 -1.101562 -0.00390625 -1.53125 0.421875 -2.125 L 7.453125 -12.03125 C 7.554688 -12.019531 7.703125 -12.015625 7.890625 -12.015625 C 8.097656 -12.015625 8.238281 -12.019531 8.3125 -12.03125 Z M 6.125 -4.859375 L 5.90625 -9.328125 L 2.734375 -4.859375 Z M 6.125 -4.859375" transform="translate(236.517 204.534)"/></g></g></g><g fill="#D9D9D9"><g><g><path d="M 7.890625 -11.890625 C 9.492188 -11.890625 10.640625 -11.910156 11.328125 -11.953125 C 11.066406 -11.253906 10.847656 -10.566406 10.671875 -9.890625 C 10.472656 -9.179688 10.351562 -8.6875 10.3125 -8.40625 L 9.921875 -8.40625 C 9.960938 -8.75 9.984375 -9.09375 9.984375 -9.4375 C 9.984375 -10.207031 9.828125 -10.753906 9.515625 -11.078125 C 9.210938 -11.398438 8.707031 -11.5625 8 -11.5625 L 7.609375 -11.5625 C 7.234375 -11.5625 6.953125 -11.53125 6.765625 -11.46875 C 6.585938 -11.40625 6.441406 -11.273438 6.328125 -11.078125 C 6.210938 -10.890625 6.101562 -10.582031 6 -10.15625 L 4.921875 -6.109375 L 5.703125 -6.109375 C 6.242188 -6.109375 6.695312 -6.289062 7.0625 -6.65625 C 7.4375 -7.03125 7.753906 -7.523438 8.015625 -8.140625 L 8.390625 -8.140625 C 8.222656 -7.609375 8.015625 -6.875 7.765625 -5.9375 C 7.660156 -5.507812 7.484375 -4.675781 7.234375 -3.4375 L 6.875 -3.4375 C 6.90625 -4.207031 6.828125 -4.785156 6.640625 -5.171875 C 6.453125 -5.566406 6.078125 -5.765625 5.515625 -5.765625 L 4.84375 -5.765625 L 3.78125 -1.78125 C 3.6875 -1.445312 3.640625 -1.203125 3.640625 -1.046875 C 3.640625 -0.773438 3.742188 -0.59375 3.953125 -0.5 C 4.160156 -0.414062 4.539062 -0.363281 5.09375 -0.34375 L 5.03125 0 C 4.34375 -0.03125 3.34375 -0.046875 2.03125 -0.046875 C 0.789062 -0.046875 -0.125 -0.03125 -0.71875 0 L -0.640625 -0.34375 C -0.234375 -0.363281 0.0664062 -0.40625 0.265625 -0.46875 C 0.460938 -0.539062 0.617188 -0.671875 0.734375 -0.859375 C 0.859375 -1.046875 0.976562 -1.351562 1.09375 -1.78125 L 3.328125 -10.15625 C 3.410156 -10.539062 3.453125 -10.8125 3.453125 -10.96875 C 3.453125 -11.21875 3.367188 -11.378906 3.203125 -11.453125 C 3.046875 -11.535156 2.753906 -11.585938 2.328125 -11.609375 L 2.40625 -11.953125 C 3.632812 -11.910156 5.460938 -11.890625 7.890625 -11.890625 Z M 7.890625 -11.890625" transform="translate(248.38 204.534)"/></g></g></g><g fill="#D9D9D9"><g><g><path d="M 7.890625 -11.890625 C 9.492188 -11.890625 10.640625 -11.910156 11.328125 -11.953125 C 11.003906 -11.097656 10.789062 -10.429688 10.6875 -9.953125 C 10.625 -9.703125 10.550781 -9.351562 10.46875 -8.90625 L 10.09375 -8.90625 C 10.101562 -9.050781 10.109375 -9.253906 10.109375 -9.515625 C 10.109375 -10.265625 9.96875 -10.789062 9.6875 -11.09375 C 9.40625 -11.40625 8.921875 -11.5625 8.234375 -11.5625 L 7.71875 -11.5625 C 7.320312 -11.5625 7.023438 -11.53125 6.828125 -11.46875 C 6.628906 -11.40625 6.46875 -11.273438 6.34375 -11.078125 C 6.226562 -10.890625 6.113281 -10.582031 6 -10.15625 L 4.9375 -6.171875 L 5.5625 -6.171875 C 6.125 -6.171875 6.597656 -6.367188 6.984375 -6.765625 C 7.367188 -7.160156 7.664062 -7.640625 7.875 -8.203125 L 8.265625 -8.203125 C 8.054688 -7.554688 7.882812 -6.960938 7.75 -6.421875 L 7.640625 -6 C 7.503906 -5.476562 7.34375 -4.75 7.15625 -3.8125 L 6.78125 -3.8125 C 6.789062 -3.894531 6.796875 -4.019531 6.796875 -4.1875 C 6.796875 -5.289062 6.328125 -5.84375 5.390625 -5.84375 L 4.859375 -5.84375 L 3.78125 -1.78125 C 3.675781 -1.4375 3.625 -1.164062 3.625 -0.96875 C 3.625 -0.726562 3.707031 -0.570312 3.875 -0.5 C 4.039062 -0.425781 4.328125 -0.390625 4.734375 -0.390625 L 5.359375 -0.390625 C 5.972656 -0.390625 6.488281 -0.476562 6.90625 -0.65625 C 7.320312 -0.84375 7.691406 -1.148438 8.015625 -1.578125 C 8.335938 -2.015625 8.671875 -2.613281 9.015625 -3.375 L 9.40625 -3.375 C 9.28125 -3.050781 9.15625 -2.644531 9.03125 -2.15625 C 8.832031 -1.5 8.6875 -0.78125 8.59375 0 C 7.820312 -0.03125 6.546875 -0.046875 4.765625 -0.046875 C 2.328125 -0.046875 0.5 -0.03125 -0.71875 0 L -0.640625 -0.34375 C -0.234375 -0.363281 0.0664062 -0.40625 0.265625 -0.46875 C 0.460938 -0.539062 0.617188 -0.671875 0.734375 -0.859375 C 0.859375 -1.046875 0.976562 -1.351562 1.09375 -1.78125 L 3.328125 -10.15625 C 3.410156 -10.539062 3.453125 -10.8125 3.453125 -10.96875 C 3.453125 -11.21875 3.367188 -11.378906 3.203125 -11.453125 C 3.046875 -11.535156 2.753906 -11.585938 2.328125 -11.609375 L 2.40625 -11.953125 C 3.632812 -11.910156 5.460938 -11.890625 7.890625 -11.890625 Z M 7.890625 -11.890625" transform="translate(259.147 204.534)"/></g></g></g><g fill="#D9D9D9"><g><g><path d="M 13.171875 -14.484375 C 13.566406 -14.484375 13.882812 -14.363281 14.125 -14.125 C 14.363281 -13.894531 14.484375 -13.617188 14.484375 -13.296875 C 14.484375 -12.609375 14.09375 -12.070312 13.3125 -11.6875 C 12.625 -11.363281 11.6875 -11.203125 10.5 -11.203125 C 10.289062 -11.203125 9.960938 -11.210938 9.515625 -11.234375 L 7.03125 -1.953125 C 6.945312 -1.617188 6.90625 -1.363281 6.90625 -1.1875 C 6.90625 -0.894531 7.007812 -0.6875 7.21875 -0.5625 C 7.425781 -0.4375 7.785156 -0.363281 8.296875 -0.34375 L 8.234375 0 C 7.523438 -0.03125 6.484375 -0.046875 5.109375 -0.046875 C 3.773438 -0.046875 2.785156 -0.03125 2.140625 0 L 2.203125 -0.34375 C 2.691406 -0.363281 3.066406 -0.421875 3.328125 -0.515625 C 3.597656 -0.609375 3.804688 -0.765625 3.953125 -0.984375 C 4.109375 -1.203125 4.242188 -1.523438 4.359375 -1.953125 L 6.90625 -11.484375 C 6.0625 -11.566406 5.382812 -11.609375 4.875 -11.609375 C 3.9375 -11.609375 3.300781 -11.515625 2.96875 -11.328125 C 3.257812 -11.234375 3.5 -11.066406 3.6875 -10.828125 C 3.882812 -10.585938 3.984375 -10.296875 3.984375 -9.953125 C 3.984375 -9.554688 3.859375 -9.21875 3.609375 -8.9375 C 3.359375 -8.664062 3.046875 -8.53125 2.671875 -8.53125 C 2.296875 -8.53125 2 -8.65625 1.78125 -8.90625 C 1.5625 -9.164062 1.453125 -9.488281 1.453125 -9.875 C 1.453125 -10.1875 1.535156 -10.488281 1.703125 -10.78125 C 1.878906 -11.070312 2.160156 -11.316406 2.546875 -11.515625 C 3.097656 -11.773438 3.851562 -11.90625 4.8125 -11.90625 C 5.550781 -11.90625 6.597656 -11.84375 7.953125 -11.71875 C 9.179688 -11.601562 10.078125 -11.546875 10.640625 -11.546875 C 11.398438 -11.546875 12 -11.617188 12.4375 -11.765625 C 12.269531 -11.921875 12.128906 -12.113281 12.015625 -12.34375 C 11.898438 -12.570312 11.84375 -12.820312 11.84375 -13.09375 C 11.84375 -13.5 11.960938 -13.832031 12.203125 -14.09375 C 12.453125 -14.351562 12.773438 -14.484375 13.171875 -14.484375 Z M 13.171875 -14.484375" transform="translate(270.554 204.534)"/></g></g></g><g fill="#D9D9D9"><g><g><path d="M 12.1875 -12.1875 C 12.664062 -12.1875 13.046875 -12.046875 13.328125 -11.765625 C 13.609375 -11.492188 13.75 -11.148438 13.75 -10.734375 C 13.75 -10.304688 13.601562 -9.945312 13.3125 -9.65625 C 13.03125 -9.363281 12.664062 -9.21875 12.21875 -9.21875 C 11.84375 -9.21875 11.550781 -9.304688 11.34375 -9.484375 C 11.144531 -9.671875 11.046875 -9.925781 11.046875 -10.25 C 11.054688 -10.613281 11.179688 -10.929688 11.421875 -11.203125 C 11.660156 -11.484375 11.960938 -11.679688 12.328125 -11.796875 C 12.273438 -11.835938 12.179688 -11.859375 12.046875 -11.859375 C 11.710938 -11.859375 11.375 -11.726562 11.03125 -11.46875 C 10.53125 -11.113281 9.957031 -10.421875 9.3125 -9.390625 C 8.675781 -8.359375 8.097656 -7.085938 7.578125 -5.578125 L 6.609375 -1.78125 C 6.546875 -1.519531 6.515625 -1.296875 6.515625 -1.109375 C 6.515625 -0.816406 6.609375 -0.617188 6.796875 -0.515625 C 6.992188 -0.421875 7.332031 -0.363281 7.8125 -0.34375 L 7.734375 0 C 7.085938 -0.03125 6.117188 -0.046875 4.828125 -0.046875 C 3.609375 -0.046875 2.703125 -0.03125 2.109375 0 L 2.1875 -0.34375 C 2.59375 -0.363281 2.894531 -0.40625 3.09375 -0.46875 C 3.300781 -0.539062 3.46875 -0.675781 3.59375 -0.875 C 3.71875 -1.070312 3.832031 -1.375 3.9375 -1.78125 L 4.84375 -5.421875 C 4.664062 -6.960938 4.414062 -8.265625 4.09375 -9.328125 C 3.78125 -10.398438 3.382812 -10.9375 2.90625 -10.9375 C 2.707031 -10.9375 2.550781 -10.867188 2.4375 -10.734375 C 2.320312 -10.597656 2.21875 -10.398438 2.125 -10.140625 L 1.765625 -9.078125 L 1.40625 -9.078125 L 1.828125 -10.375 C 2.035156 -11.019531 2.335938 -11.484375 2.734375 -11.765625 C 3.140625 -12.046875 3.628906 -12.1875 4.203125 -12.1875 C 4.929688 -12.1875 5.503906 -11.957031 5.921875 -11.5 C 6.347656 -11.039062 6.664062 -10.390625 6.875 -9.546875 C 7.082031 -8.710938 7.265625 -7.582031 7.421875 -6.15625 C 7.796875 -7.21875 8.21875 -8.171875 8.6875 -9.015625 C 9.164062 -9.859375 9.664062 -10.566406 10.1875 -11.140625 C 10.832031 -11.835938 11.5 -12.1875 12.1875 -12.1875 Z M 12.1875 -12.1875" transform="translate(282.89 204.534)"/></g></g></g><g fill="#D9D9D9"><g><g><path d="M 12.75 -7.921875 C 12.75 -6.617188 12.4375 -5.359375 11.8125 -4.140625 C 11.1875 -2.929688 10.242188 -1.9375 8.984375 -1.15625 C 7.734375 -0.382812 6.21875 0 4.4375 0 L 3.609375 -0.015625 C 2.953125 -0.0351562 2.378906 -0.046875 1.890625 -0.046875 C 0.796875 -0.046875 -0.046875 -0.03125 -0.640625 0 L -0.59375 -0.34375 C -0.207031 -0.363281 0.0820312 -0.40625 0.28125 -0.46875 C 0.476562 -0.539062 0.632812 -0.675781 0.75 -0.875 C 0.863281 -1.070312 0.976562 -1.375 1.09375 -1.78125 L 3.3125 -10.15625 C 3.394531 -10.457031 3.4375 -10.703125 3.4375 -10.890625 C 3.4375 -11.128906 3.351562 -11.304688 3.1875 -11.421875 C 3.03125 -11.535156 2.742188 -11.597656 2.328125 -11.609375 L 2.375 -11.953125 C 2.882812 -11.910156 3.628906 -11.890625 4.609375 -11.890625 L 5.140625 -11.890625 C 6.328125 -11.929688 7.164062 -11.953125 7.65625 -11.953125 C 9.3125 -11.953125 10.570312 -11.609375 11.4375 -10.921875 C 12.3125 -10.242188 12.75 -9.242188 12.75 -7.921875 Z M 4.4375 -0.296875 C 5.582031 -0.296875 6.578125 -0.695312 7.421875 -1.5 C 8.265625 -2.300781 8.910156 -3.328125 9.359375 -4.578125 C 9.804688 -5.835938 10.03125 -7.128906 10.03125 -8.453125 C 10.03125 -9.515625 9.804688 -10.3125 9.359375 -10.84375 C 8.921875 -11.375 8.234375 -11.640625 7.296875 -11.640625 C 6.992188 -11.640625 6.769531 -11.601562 6.625 -11.53125 C 6.488281 -11.457031 6.375 -11.320312 6.28125 -11.125 C 6.195312 -10.9375 6.097656 -10.625 5.984375 -10.1875 L 3.78125 -1.75 C 3.65625 -1.257812 3.59375 -0.953125 3.59375 -0.828125 C 3.59375 -0.640625 3.65625 -0.503906 3.78125 -0.421875 C 3.914062 -0.335938 4.132812 -0.296875 4.4375 -0.296875 Z M 4.4375 -0.296875" transform="translate(301.268 204.534)"/></g></g></g><g fill="#D9D9D9"><g><g><path d="M 11.046875 -2.046875 L 11.4375 -2.046875 L 11.375 -1.828125 C 11.15625 -1.117188 10.84375 -0.597656 10.4375 -0.265625 C 10.039062 0.0664062 9.492188 0.234375 8.796875 0.234375 C 8.109375 0.234375 7.59375 0.0859375 7.25 -0.203125 C 6.90625 -0.492188 6.734375 -0.894531 6.734375 -1.40625 C 6.734375 -1.550781 6.738281 -1.65625 6.75 -1.71875 L 7 -3.640625 C 7.019531 -3.910156 7.03125 -4.097656 7.03125 -4.203125 C 7.03125 -4.722656 6.867188 -5.101562 6.546875 -5.34375 C 6.234375 -5.582031 5.660156 -5.710938 4.828125 -5.734375 L 3.78125 -1.78125 C 3.664062 -1.394531 3.609375 -1.125 3.609375 -0.96875 C 3.609375 -0.75 3.691406 -0.59375 3.859375 -0.5 C 4.035156 -0.40625 4.335938 -0.351562 4.765625 -0.34375 L 4.6875 0 C 4.007812 -0.03125 3.132812 -0.046875 2.0625 -0.046875 C 0.8125 -0.046875 -0.109375 -0.03125 -0.703125 0 L -0.640625 -0.34375 C -0.234375 -0.363281 0.0664062 -0.40625 0.265625 -0.46875 C 0.472656 -0.539062 0.632812 -0.671875 0.75 -0.859375 C 0.863281 -1.046875 0.976562 -1.351562 1.09375 -1.78125 L 3.3125 -10.15625 C 3.40625 -10.5625 3.453125 -10.828125 3.453125 -10.953125 C 3.453125 -11.179688 3.367188 -11.34375 3.203125 -11.4375 C 3.046875 -11.539062 2.753906 -11.597656 2.328125 -11.609375 L 2.40625 -11.953125 C 2.988281 -11.910156 3.84375 -11.890625 4.96875 -11.890625 L 6.40625 -11.90625 C 6.664062 -11.925781 7.03125 -11.9375 7.5 -11.9375 C 8.863281 -11.9375 9.875 -11.742188 10.53125 -11.359375 C 11.195312 -10.972656 11.53125 -10.378906 11.53125 -9.578125 C 11.53125 -8.585938 11.082031 -7.757812 10.1875 -7.09375 C 9.289062 -6.425781 8.082031 -6.007812 6.5625 -5.84375 C 7.582031 -5.738281 8.359375 -5.550781 8.890625 -5.28125 C 9.421875 -5.007812 9.6875 -4.539062 9.6875 -3.875 C 9.6875 -3.8125 9.675781 -3.691406 9.65625 -3.515625 L 9.421875 -1.765625 C 9.410156 -1.679688 9.40625 -1.5625 9.40625 -1.40625 C 9.40625 -0.863281 9.582031 -0.59375 9.9375 -0.59375 C 10.15625 -0.59375 10.34375 -0.691406 10.5 -0.890625 C 10.65625 -1.085938 10.8125 -1.394531 10.96875 -1.8125 Z M 4.890625 -6.046875 L 5.03125 -6.046875 C 6.164062 -6.046875 7.078125 -6.378906 7.765625 -7.046875 C 8.460938 -7.710938 8.8125 -8.644531 8.8125 -9.84375 C 8.8125 -10.445312 8.679688 -10.890625 8.421875 -11.171875 C 8.160156 -11.460938 7.765625 -11.609375 7.234375 -11.609375 C 6.898438 -11.609375 6.648438 -11.53125 6.484375 -11.375 C 6.328125 -11.226562 6.191406 -10.9375 6.078125 -10.5 Z M 4.890625 -6.046875" transform="translate(315.122 204.534)"/></g></g></g><g fill="#D9D9D9"><g><g><path d="M 3.78125 -1.78125 C 3.675781 -1.351562 3.625 -1.082031 3.625 -0.96875 C 3.625 -0.726562 3.707031 -0.566406 3.875 -0.484375 C 4.039062 -0.410156 4.34375 -0.363281 4.78125 -0.34375 L 4.703125 0 C 4.054688 -0.03125 3.140625 -0.046875 1.953125 -0.046875 C 0.773438 -0.046875 -0.101562 -0.03125 -0.6875 0 L -0.609375 -0.34375 C -0.210938 -0.363281 0.0820312 -0.40625 0.28125 -0.46875 C 0.476562 -0.539062 0.632812 -0.675781 0.75 -0.875 C 0.863281 -1.070312 0.976562 -1.375 1.09375 -1.78125 L 3.328125 -10.15625 C 3.410156 -10.539062 3.453125 -10.8125 3.453125 -10.96875 C 3.453125 -11.21875 3.367188 -11.378906 3.203125 -11.453125 C 3.046875 -11.535156 2.753906 -11.585938 2.328125 -11.609375 L 2.40625 -11.953125 C 2.957031 -11.910156 3.84375 -11.890625 5.0625 -11.890625 C 6.175781 -11.890625 7.097656 -11.910156 7.828125 -11.953125 L 7.75 -11.609375 C 7.332031 -11.585938 7.023438 -11.539062 6.828125 -11.46875 C 6.628906 -11.40625 6.46875 -11.273438 6.34375 -11.078125 C 6.226562 -10.890625 6.113281 -10.582031 6 -10.15625 Z M 3.78125 -1.78125" transform="translate(327.964 204.534)"/></g></g></g><g fill="#D9D9D9"><g><g><path d="M 11.890625 -11.890625 C 12.378906 -11.890625 12.800781 -11.910156 13.15625 -11.953125 L 13.078125 -11.609375 C 12.703125 -11.503906 12.363281 -11.328125 12.0625 -11.078125 C 11.769531 -10.828125 11.4375 -10.410156 11.0625 -9.828125 L 4.625 0.078125 L 4.203125 0.0625 L 3.765625 0.078125 L 2.4375 -10.53125 C 2.382812 -10.90625 2.269531 -11.175781 2.09375 -11.34375 C 1.925781 -11.507812 1.742188 -11.597656 1.546875 -11.609375 L 1.640625 -11.953125 C 2.210938 -11.910156 3.019531 -11.890625 4.0625 -11.890625 C 5.195312 -11.890625 6.0625 -11.910156 6.65625 -11.953125 L 6.5625 -11.609375 C 6.0625 -11.585938 5.707031 -11.507812 5.5 -11.375 C 5.300781 -11.25 5.203125 -10.988281 5.203125 -10.59375 C 5.203125 -10.425781 5.207031 -10.289062 5.21875 -10.1875 L 6.0625 -2.71875 L 10.5 -9.53125 C 10.832031 -10.050781 11 -10.46875 11 -10.78125 C 11 -11.050781 10.878906 -11.25 10.640625 -11.375 C 10.410156 -11.507812 10.066406 -11.585938 9.609375 -11.609375 L 9.6875 -11.953125 C 10.125 -11.910156 10.859375 -11.890625 11.890625 -11.890625 Z M 11.890625 -11.890625" transform="translate(335.39 204.534)"/></g></g></g><g fill="#D9D9D9"><g><g><path d="M 7.890625 -11.890625 C 9.492188 -11.890625 10.640625 -11.910156 11.328125 -11.953125 C 11.003906 -11.097656 10.789062 -10.429688 10.6875 -9.953125 C 10.625 -9.703125 10.550781 -9.351562 10.46875 -8.90625 L 10.09375 -8.90625 C 10.101562 -9.050781 10.109375 -9.253906 10.109375 -9.515625 C 10.109375 -10.265625 9.96875 -10.789062 9.6875 -11.09375 C 9.40625 -11.40625 8.921875 -11.5625 8.234375 -11.5625 L 7.71875 -11.5625 C 7.320312 -11.5625 7.023438 -11.53125 6.828125 -11.46875 C 6.628906 -11.40625 6.46875 -11.273438 6.34375 -11.078125 C 6.226562 -10.890625 6.113281 -10.582031 6 -10.15625 L 4.9375 -6.171875 L 5.5625 -6.171875 C 6.125 -6.171875 6.597656 -6.367188 6.984375 -6.765625 C 7.367188 -7.160156 7.664062 -7.640625 7.875 -8.203125 L 8.265625 -8.203125 C 8.054688 -7.554688 7.882812 -6.960938 7.75 -6.421875 L 7.640625 -6 C 7.503906 -5.476562 7.34375 -4.75 7.15625 -3.8125 L 6.78125 -3.8125 C 6.789062 -3.894531 6.796875 -4.019531 6.796875 -4.1875 C 6.796875 -5.289062 6.328125 -5.84375 5.390625 -5.84375 L 4.859375 -5.84375 L 3.78125 -1.78125 C 3.675781 -1.4375 3.625 -1.164062 3.625 -0.96875 C 3.625 -0.726562 3.707031 -0.570312 3.875 -0.5 C 4.039062 -0.425781 4.328125 -0.390625 4.734375 -0.390625 L 5.359375 -0.390625 C 5.972656 -0.390625 6.488281 -0.476562 6.90625 -0.65625 C 7.320312 -0.84375 7.691406 -1.148438 8.015625 -1.578125 C 8.335938 -2.015625 8.671875 -2.613281 9.015625 -3.375 L 9.40625 -3.375 C 9.28125 -3.050781 9.15625 -2.644531 9.03125 -2.15625 C 8.832031 -1.5 8.6875 -0.78125 8.59375 0 C 7.820312 -0.03125 6.546875 -0.046875 4.765625 -0.046875 C 2.328125 -0.046875 0.5 -0.03125 -0.71875 0 L -0.640625 -0.34375 C -0.234375 -0.363281 0.0664062 -0.40625 0.265625 -0.46875 C 0.460938 -0.539062 0.617188 -0.671875 0.734375 -0.859375 C 0.859375 -1.046875 0.976562 -1.351562 1.09375 -1.78125 L 3.328125 -10.15625 C 3.410156 -10.539062 3.453125 -10.8125 3.453125 -10.96875 C 3.453125 -11.21875 3.367188 -11.378906 3.203125 -11.453125 C 3.046875 -11.535156 2.753906 -11.585938 2.328125 -11.609375 L 2.40625 -11.953125 C 3.632812 -11.910156 5.460938 -11.890625 7.890625 -11.890625 Z M 7.890625 -11.890625" transform="translate(347.388 204.534)"/></g></g></g></svg>