<svg xmlns="http://www.w3.org/2000/svg" width="375" viewBox="0 0 375 375" height="375" version="1.0"><defs><clipPath id="a"><path d="M 27.289062 137.183594 L 117.289062 137.183594 L 117.289062 221 L 27.289062 221 Z M 27.289062 137.183594"/></clipPath><clipPath id="b"><path d="M 42 167 L 88 167 L 88 237.683594 L 42 237.683594 Z M 42 167"/></clipPath></defs><g clip-path="url(#a)"><path fill="#D9D9D9" d="M 86.410156 211.796875 C 103.90625 208.636719 117.289062 193.203125 117.289062 174.785156 C 117.289062 154.109375 100.414062 137.1875 79.789062 137.1875 L 27.289062 137.1875 L 42.289062 152.230469 L 79.789062 152.230469 C 92.164062 152.230469 102.289062 162.378906 102.289062 174.789062 C 102.289062 187.195312 92.164062 197.347656 79.789062 197.347656 L 72.289062 197.347656 L 72.289062 220.308594 L 87.289062 211.625 C 87 211.683594 86.707031 211.742188 86.410156 211.796875 Z M 86.410156 211.796875" fill-rule="evenodd"/></g><g clip-path="url(#b)"><path fill="#38B6FF" d="M 57.289062 212.386719 C 57.289062 202.359375 57.289062 192.332031 57.289062 182.308594 L 79.789062 182.308594 C 83.914062 182.308594 87.289062 178.925781 87.289062 174.789062 C 87.289062 170.652344 83.914062 167.269531 79.789062 167.269531 L 42.289062 167.269531 C 42.289062 182.308594 42.289062 197.347656 42.289062 212.386719 L 42.289062 237.675781 L 57.289062 228.992188 Z M 57.289062 212.386719" fill-rule="evenodd"/></g><g fill="#38B6FF"><g><g><path d="M 1.90625 -24.390625 L 13.109375 -24.390625 C 16.835938 -24.390625 18.703125 -22.820312 18.703125 -19.6875 L 18.703125 -4.71875 C 18.703125 -1.570312 16.835938 0 13.109375 0 L 1.90625 0 Z M 12.046875 -5.203125 L 12.046875 -19.1875 C 12.046875 -19.75 11.726562 -20.03125 11.09375 -20.03125 L 8.546875 -20.03125 L 8.546875 -4.375 L 11.09375 -4.375 C 11.726562 -4.375 12.046875 -4.648438 12.046875 -5.203125 Z M 12.046875 -5.203125" transform="translate(128.463 165.482)"/></g></g></g><g fill="#38B6FF"><g><g><path d="M 8.171875 -4.75 L 16.484375 -4.75 L 16.484375 0 L 1.515625 0 L 1.515625 -24.390625 L 16.15625 -24.390625 L 16.15625 -19.640625 L 8.171875 -19.640625 L 8.171875 -14.671875 L 15.046875 -14.671875 L 15.046875 -9.921875 L 8.171875 -9.921875 Z M 8.171875 -4.75" transform="translate(153.881 165.482)"/></g></g></g><g fill="#38B6FF"><g><g><path d="M 8.171875 -4.75 L 15.734375 -4.75 L 15.734375 0 L 1.515625 0 L 1.515625 -24.390625 L 8.171875 -24.390625 Z M 8.171875 -4.75" transform="translate(176.26 165.482)"/></g></g></g><g fill="#38B6FF"><g><g><path d="M 1.515625 -24.390625 L 8.171875 -24.390625 L 8.171875 0 L 1.515625 0 Z M 1.515625 -24.390625" transform="translate(197.309 165.482)"/></g></g></g><g fill="#38B6FF"><g><g><path d="M 7.453125 0 L 1.515625 0 L 1.515625 -24.390625 L 8.78125 -24.390625 L 12.734375 -11.359375 L 16.6875 -24.390625 L 23.9375 -24.390625 L 23.9375 0 L 18.046875 0 L 18.046875 -15.5 L 15.015625 -5.28125 L 10.453125 -5.28125 L 7.453125 -15.421875 Z M 7.453125 0" transform="translate(212.317 165.482)"/></g></g></g><g fill="#38B6FF"><g><g><path d="M 13.953125 0 L 13.1875 -3.640625 L 7.328125 -3.640625 L 6.53125 0 L 0 0 L 6.265625 -24.390625 L 14.359375 -24.390625 L 20.640625 0 Z M 8.359375 -8.359375 L 12.15625 -8.359375 L 10.296875 -17.140625 Z M 8.359375 -8.359375" transform="translate(243.091 165.482)"/></g></g></g><g fill="#38B6FF"><g><g><path d="M 12.65625 -24.390625 L 18.734375 -24.390625 L 18.734375 0 L 13.03125 0 L 7.59375 -12.8125 L 7.59375 0 L 1.515625 0 L 1.515625 -24.390625 L 7.21875 -24.390625 L 12.65625 -11.359375 Z M 12.65625 -24.390625" transform="translate(269.041 165.482)"/></g></g></g><g fill="#38B6FF"><g><g><path d="M 0.375 -9.765625 L 7.03125 -9.765625 L 7.03125 -5.59375 C 7.03125 -5.03125 7.347656 -4.75 7.984375 -4.75 L 8.390625 -4.75 C 9.023438 -4.75 9.34375 -5.03125 9.34375 -5.59375 L 9.34375 -24.390625 L 16 -24.390625 L 16 -4.71875 C 16 -1.570312 14.132812 0 10.40625 0 L 5.96875 0 C 2.238281 0 0.375 -1.570312 0.375 -4.71875 Z M 0.375 -9.765625" transform="translate(294.611 165.482)"/></g></g></g><g fill="#38B6FF"><g><g><path d="M 6.984375 -24.390625 L 12.609375 -24.390625 C 16.335938 -24.390625 18.203125 -22.820312 18.203125 -19.6875 L 18.203125 -4.71875 C 18.203125 -1.570312 16.335938 0 12.609375 0 L 6.984375 0 C 3.265625 0 1.40625 -1.570312 1.40625 -4.71875 L 1.40625 -19.6875 C 1.40625 -22.820312 3.265625 -24.390625 6.984375 -24.390625 Z M 11.546875 -5.59375 L 11.546875 -18.8125 C 11.546875 -19.363281 11.234375 -19.640625 10.609375 -19.640625 L 9 -19.640625 C 8.375 -19.640625 8.0625 -19.363281 8.0625 -18.8125 L 8.0625 -5.59375 C 8.0625 -5.03125 8.375 -4.75 9 -4.75 L 10.609375 -4.75 C 11.234375 -4.75 11.546875 -5.03125 11.546875 -5.59375 Z M 11.546875 -5.59375" transform="translate(317.293 165.482)"/></g></g></g><g fill="#D9D9D9"><g><g><path d="M 8.3125 -13.21875 C 10.0625 -13.21875 11.300781 -13.238281 12.03125 -13.28125 C 11.71875 -12.382812 11.460938 -11.582031 11.265625 -10.875 C 11.140625 -10.414062 11.019531 -9.90625 10.90625 -9.34375 L 10.484375 -9.34375 C 10.617188 -10.132812 10.6875 -10.757812 10.6875 -11.21875 C 10.6875 -11.8125 10.53125 -12.226562 10.21875 -12.46875 C 9.90625 -12.71875 9.34375 -12.84375 8.53125 -12.84375 L 7.53125 -12.84375 C 7.082031 -12.84375 6.75 -12.804688 6.53125 -12.734375 C 6.3125 -12.671875 6.132812 -12.53125 6 -12.3125 C 5.863281 -12.101562 5.734375 -11.757812 5.609375 -11.28125 L 4.375 -6.671875 L 5.734375 -6.671875 C 6.367188 -6.671875 6.84375 -6.859375 7.15625 -7.234375 C 7.46875 -7.617188 7.695312 -8.003906 7.84375 -8.390625 C 7.988281 -8.785156 8.085938 -9.039062 8.140625 -9.15625 L 8.5625 -9.15625 C 8.300781 -8.320312 8.082031 -7.578125 7.90625 -6.921875 L 7.796875 -6.484375 C 7.597656 -5.660156 7.398438 -4.773438 7.203125 -3.828125 L 6.765625 -3.828125 L 6.828125 -4.234375 C 6.890625 -4.578125 6.921875 -4.875 6.921875 -5.125 C 6.921875 -5.5 6.828125 -5.785156 6.640625 -5.984375 C 6.453125 -6.191406 6.117188 -6.296875 5.640625 -6.296875 L 4.28125 -6.296875 L 3.109375 -1.984375 C 3.015625 -1.609375 2.96875 -1.332031 2.96875 -1.15625 C 2.96875 -0.863281 3.082031 -0.664062 3.3125 -0.5625 C 3.539062 -0.457031 3.960938 -0.394531 4.578125 -0.375 L 4.484375 0 C 3.828125 -0.0390625 2.90625 -0.0625 1.71875 -0.0625 C 0.65625 -0.0625 -0.132812 -0.0390625 -0.65625 0 L -0.5625 -0.375 C -0.113281 -0.394531 0.21875 -0.441406 0.4375 -0.515625 C 0.65625 -0.597656 0.832031 -0.742188 0.96875 -0.953125 C 1.113281 -1.171875 1.25 -1.515625 1.375 -1.984375 L 3.859375 -11.28125 C 3.972656 -11.6875 4.03125 -11.992188 4.03125 -12.203125 C 4.03125 -12.460938 3.9375 -12.632812 3.75 -12.71875 C 3.570312 -12.8125 3.25 -12.875 2.78125 -12.90625 L 2.875 -13.28125 C 4.09375 -13.238281 5.90625 -13.21875 8.3125 -13.21875 Z M 8.3125 -13.21875" transform="translate(142.697 198.056)"/></g></g></g><g fill="#D9D9D9"><g><g><path d="M 1.015625 -4.234375 C 1.015625 -5.648438 1.34375 -7.082031 2 -8.53125 C 2.664062 -9.976562 3.59375 -11.171875 4.78125 -12.109375 C 5.976562 -13.054688 7.328125 -13.53125 8.828125 -13.53125 C 10.234375 -13.53125 11.320312 -13.132812 12.09375 -12.34375 C 12.863281 -11.5625 13.25 -10.453125 13.25 -9.015625 C 13.25 -7.609375 12.914062 -6.179688 12.25 -4.734375 C 11.582031 -3.285156 10.648438 -2.085938 9.453125 -1.140625 C 8.253906 -0.203125 6.910156 0.265625 5.421875 0.265625 C 4.035156 0.265625 2.953125 -0.125 2.171875 -0.90625 C 1.398438 -1.695312 1.015625 -2.804688 1.015625 -4.234375 Z M 8.65625 -13.203125 C 7.71875 -13.203125 6.804688 -12.75 5.921875 -11.84375 C 5.046875 -10.945312 4.335938 -9.78125 3.796875 -8.34375 C 3.265625 -6.914062 3 -5.46875 3 -4 C 3 -2.78125 3.234375 -1.820312 3.703125 -1.125 C 4.179688 -0.425781 4.8125 -0.078125 5.59375 -0.078125 C 6.53125 -0.078125 7.4375 -0.523438 8.3125 -1.421875 C 9.195312 -2.328125 9.90625 -3.492188 10.4375 -4.921875 C 10.976562 -6.347656 11.25 -7.800781 11.25 -9.28125 C 11.25 -10.488281 11.007812 -11.441406 10.53125 -12.140625 C 10.0625 -12.847656 9.4375 -13.203125 8.65625 -13.203125 Z M 8.65625 -13.203125" transform="translate(154.248 198.056)"/></g></g></g><g fill="#D9D9D9"><g><g><path d="M 11.09375 -2.265625 L 11.53125 -2.265625 L 11.453125 -2.03125 C 11.234375 -1.238281 10.953125 -0.65625 10.609375 -0.28125 C 10.265625 0.0820312 9.800781 0.265625 9.21875 0.265625 C 8.632812 0.265625 8.195312 0.09375 7.90625 -0.25 C 7.625 -0.601562 7.5 -1.03125 7.53125 -1.53125 L 7.6875 -3.640625 C 7.695312 -3.785156 7.703125 -3.984375 7.703125 -4.234375 C 7.703125 -4.765625 7.609375 -5.171875 7.421875 -5.453125 C 7.234375 -5.742188 6.890625 -5.953125 6.390625 -6.078125 C 5.898438 -6.210938 5.1875 -6.285156 4.25 -6.296875 L 3.109375 -1.984375 C 2.992188 -1.609375 2.9375 -1.300781 2.9375 -1.0625 C 2.9375 -0.8125 3.023438 -0.632812 3.203125 -0.53125 C 3.390625 -0.4375 3.726562 -0.382812 4.21875 -0.375 L 4.140625 0 C 3.566406 -0.0390625 2.789062 -0.0625 1.8125 -0.0625 C 0.71875 -0.0625 -0.09375 -0.0390625 -0.625 0 L -0.546875 -0.375 C -0.0976562 -0.394531 0.238281 -0.441406 0.46875 -0.515625 C 0.695312 -0.597656 0.875 -0.742188 1 -0.953125 C 1.132812 -1.171875 1.265625 -1.515625 1.390625 -1.984375 L 3.859375 -11.28125 C 3.972656 -11.707031 4.03125 -12.003906 4.03125 -12.171875 C 4.03125 -12.429688 3.9375 -12.613281 3.75 -12.71875 C 3.5625 -12.820312 3.226562 -12.882812 2.75 -12.90625 L 2.84375 -13.28125 C 3.34375 -13.238281 4.113281 -13.21875 5.15625 -13.21875 C 5.757812 -13.21875 6.207031 -13.222656 6.5 -13.234375 L 7.890625 -13.25 C 9.117188 -13.25 10.046875 -13.015625 10.671875 -12.546875 C 11.304688 -12.078125 11.625 -11.429688 11.625 -10.609375 C 11.625 -9.585938 11.179688 -8.703125 10.296875 -7.953125 C 9.410156 -7.203125 8.222656 -6.703125 6.734375 -6.453125 C 6.890625 -6.441406 7.109375 -6.410156 7.390625 -6.359375 C 8.128906 -6.222656 8.660156 -6.003906 8.984375 -5.703125 C 9.304688 -5.398438 9.46875 -4.914062 9.46875 -4.25 C 9.46875 -4.09375 9.460938 -3.96875 9.453125 -3.875 L 9.296875 -1.96875 C 9.285156 -1.882812 9.28125 -1.753906 9.28125 -1.578125 C 9.28125 -0.816406 9.476562 -0.4375 9.875 -0.4375 C 10.09375 -0.4375 10.285156 -0.5625 10.453125 -0.8125 C 10.628906 -1.070312 10.8125 -1.46875 11 -2 Z M 4.375 -6.671875 L 4.9375 -6.671875 C 6.625 -6.671875 7.84375 -7.039062 8.59375 -7.78125 C 9.351562 -8.519531 9.734375 -9.5 9.734375 -10.71875 C 9.734375 -11.457031 9.546875 -12.003906 9.171875 -12.359375 C 8.796875 -12.722656 8.1875 -12.90625 7.34375 -12.90625 C 6.96875 -12.90625 6.675781 -12.859375 6.46875 -12.765625 C 6.257812 -12.671875 6.085938 -12.507812 5.953125 -12.28125 C 5.816406 -12.050781 5.695312 -11.71875 5.59375 -11.28125 Z M 4.375 -6.671875" transform="translate(168.855 198.056)"/></g></g></g><g fill="#D9D9D9"><g><g><path d="M 13.125 -13.53125 C 13.488281 -13.53125 13.753906 -13.4375 13.921875 -13.25 C 14.085938 -13.0625 14.171875 -12.828125 14.171875 -12.546875 C 14.171875 -12.234375 14.078125 -11.9375 13.890625 -11.65625 C 13.703125 -11.375 13.425781 -11.234375 13.0625 -11.234375 C 12.8125 -11.234375 12.628906 -11.300781 12.515625 -11.4375 C 12.410156 -11.582031 12.359375 -11.765625 12.359375 -11.984375 C 12.359375 -12.179688 12.410156 -12.382812 12.515625 -12.59375 C 12.628906 -12.800781 12.773438 -12.984375 12.953125 -13.140625 L 12.90625 -13.140625 C 12.5625 -13.128906 12.21875 -12.992188 11.875 -12.734375 C 11.21875 -12.253906 10.507812 -11.484375 9.75 -10.421875 C 9 -9.367188 8.273438 -8.007812 7.578125 -6.34375 L 6.484375 -1.984375 C 6.390625 -1.554688 6.34375 -1.257812 6.34375 -1.09375 C 6.34375 -0.8125 6.429688 -0.625 6.609375 -0.53125 C 6.785156 -0.445312 7.113281 -0.394531 7.59375 -0.375 L 7.5 0 C 6.9375 -0.0390625 6.160156 -0.0625 5.171875 -0.0625 C 4.085938 -0.0625 3.269531 -0.0390625 2.71875 0 L 2.8125 -0.375 C 3.257812 -0.394531 3.59375 -0.441406 3.8125 -0.515625 C 4.039062 -0.597656 4.222656 -0.75 4.359375 -0.96875 C 4.503906 -1.1875 4.632812 -1.523438 4.75 -1.984375 L 5.84375 -6.359375 C 5.644531 -8.128906 5.375 -9.59375 5.03125 -10.75 C 4.695312 -11.914062 4.238281 -12.5 3.65625 -12.5 C 3.445312 -12.5 3.269531 -12.429688 3.125 -12.296875 C 2.976562 -12.160156 2.851562 -11.9375 2.75 -11.625 L 2.234375 -10.09375 L 1.8125 -10.09375 L 2.4375 -11.90625 C 2.632812 -12.488281 2.859375 -12.90625 3.109375 -13.15625 C 3.367188 -13.40625 3.757812 -13.53125 4.28125 -13.53125 C 4.9375 -13.53125 5.46875 -13.257812 5.875 -12.71875 C 6.28125 -12.1875 6.59375 -11.4375 6.8125 -10.46875 C 7.039062 -9.507812 7.238281 -8.269531 7.40625 -6.75 C 7.863281 -7.914062 8.394531 -8.96875 9 -9.90625 C 9.601562 -10.84375 10.238281 -11.644531 10.90625 -12.3125 C 11.71875 -13.125 12.457031 -13.53125 13.125 -13.53125 Z M 13.125 -13.53125" transform="translate(187.924 198.056)"/></g></g></g><g fill="#D9D9D9"><g><g><path d="M 1.015625 -4.234375 C 1.015625 -5.648438 1.34375 -7.082031 2 -8.53125 C 2.664062 -9.976562 3.59375 -11.171875 4.78125 -12.109375 C 5.976562 -13.054688 7.328125 -13.53125 8.828125 -13.53125 C 10.234375 -13.53125 11.320312 -13.132812 12.09375 -12.34375 C 12.863281 -11.5625 13.25 -10.453125 13.25 -9.015625 C 13.25 -7.609375 12.914062 -6.179688 12.25 -4.734375 C 11.582031 -3.285156 10.648438 -2.085938 9.453125 -1.140625 C 8.253906 -0.203125 6.910156 0.265625 5.421875 0.265625 C 4.035156 0.265625 2.953125 -0.125 2.171875 -0.90625 C 1.398438 -1.695312 1.015625 -2.804688 1.015625 -4.234375 Z M 8.65625 -13.203125 C 7.71875 -13.203125 6.804688 -12.75 5.921875 -11.84375 C 5.046875 -10.945312 4.335938 -9.78125 3.796875 -8.34375 C 3.265625 -6.914062 3 -5.46875 3 -4 C 3 -2.78125 3.234375 -1.820312 3.703125 -1.125 C 4.179688 -0.425781 4.8125 -0.078125 5.59375 -0.078125 C 6.53125 -0.078125 7.4375 -0.523438 8.3125 -1.421875 C 9.195312 -2.328125 9.90625 -3.492188 10.4375 -4.921875 C 10.976562 -6.347656 11.25 -7.800781 11.25 -9.28125 C 11.25 -10.488281 11.007812 -11.441406 10.53125 -12.140625 C 10.0625 -12.847656 9.4375 -13.203125 8.65625 -13.203125 Z M 8.65625 -13.203125" transform="translate(201.425 198.056)"/></g></g></g><g fill="#D9D9D9"><g><g><path d="M 11.828125 -11.09375 C 11.921875 -11.40625 11.96875 -11.679688 11.96875 -11.921875 C 11.96875 -12.273438 11.859375 -12.519531 11.640625 -12.65625 C 11.429688 -12.789062 11.078125 -12.875 10.578125 -12.90625 L 10.671875 -13.28125 C 11.109375 -13.238281 11.738281 -13.21875 12.5625 -13.21875 C 13.300781 -13.21875 13.890625 -13.238281 14.328125 -13.28125 L 14.234375 -12.90625 C 13.796875 -12.875 13.453125 -12.804688 13.203125 -12.703125 C 12.960938 -12.597656 12.769531 -12.421875 12.625 -12.171875 C 12.476562 -11.929688 12.351562 -11.570312 12.25 -11.09375 L 10.78125 -5.453125 C 10.332031 -3.734375 9.71875 -2.410156 8.9375 -1.484375 C 8.476562 -0.941406 7.914062 -0.515625 7.25 -0.203125 C 6.582031 0.109375 5.863281 0.265625 5.09375 0.265625 C 3.757812 0.265625 2.800781 -0.0703125 2.21875 -0.75 C 1.988281 -1.007812 1.820312 -1.289062 1.71875 -1.59375 C 1.613281 -1.90625 1.5625 -2.257812 1.5625 -2.65625 C 1.5625 -3.332031 1.71875 -4.25 2.03125 -5.40625 L 3.578125 -11.28125 C 3.679688 -11.707031 3.734375 -12.007812 3.734375 -12.1875 C 3.734375 -12.457031 3.640625 -12.632812 3.453125 -12.71875 C 3.273438 -12.8125 2.945312 -12.875 2.46875 -12.90625 L 2.59375 -13.28125 C 3.09375 -13.238281 3.894531 -13.21875 5 -13.21875 C 5.96875 -13.21875 6.75 -13.238281 7.34375 -13.28125 L 7.234375 -12.90625 C 6.773438 -12.875 6.4375 -12.820312 6.21875 -12.75 C 6 -12.675781 5.820312 -12.53125 5.6875 -12.3125 C 5.5625 -12.101562 5.4375 -11.757812 5.3125 -11.28125 L 3.65625 -5.078125 C 3.382812 -4.015625 3.25 -3.171875 3.25 -2.546875 C 3.25 -1.859375 3.421875 -1.328125 3.765625 -0.953125 C 4.109375 -0.578125 4.671875 -0.390625 5.453125 -0.390625 C 6.765625 -0.390625 7.796875 -0.8125 8.546875 -1.65625 C 9.304688 -2.507812 9.890625 -3.707031 10.296875 -5.25 Z M 11.828125 -11.09375" transform="translate(216.032 198.056)"/></g></g></g><g fill="#D9D9D9"><g><g><path d="M 11.09375 -2.265625 L 11.53125 -2.265625 L 11.453125 -2.03125 C 11.234375 -1.238281 10.953125 -0.65625 10.609375 -0.28125 C 10.265625 0.0820312 9.800781 0.265625 9.21875 0.265625 C 8.632812 0.265625 8.195312 0.09375 7.90625 -0.25 C 7.625 -0.601562 7.5 -1.03125 7.53125 -1.53125 L 7.6875 -3.640625 C 7.695312 -3.785156 7.703125 -3.984375 7.703125 -4.234375 C 7.703125 -4.765625 7.609375 -5.171875 7.421875 -5.453125 C 7.234375 -5.742188 6.890625 -5.953125 6.390625 -6.078125 C 5.898438 -6.210938 5.1875 -6.285156 4.25 -6.296875 L 3.109375 -1.984375 C 2.992188 -1.609375 2.9375 -1.300781 2.9375 -1.0625 C 2.9375 -0.8125 3.023438 -0.632812 3.203125 -0.53125 C 3.390625 -0.4375 3.726562 -0.382812 4.21875 -0.375 L 4.140625 0 C 3.566406 -0.0390625 2.789062 -0.0625 1.8125 -0.0625 C 0.71875 -0.0625 -0.09375 -0.0390625 -0.625 0 L -0.546875 -0.375 C -0.0976562 -0.394531 0.238281 -0.441406 0.46875 -0.515625 C 0.695312 -0.597656 0.875 -0.742188 1 -0.953125 C 1.132812 -1.171875 1.265625 -1.515625 1.390625 -1.984375 L 3.859375 -11.28125 C 3.972656 -11.707031 4.03125 -12.003906 4.03125 -12.171875 C 4.03125 -12.429688 3.9375 -12.613281 3.75 -12.71875 C 3.5625 -12.820312 3.226562 -12.882812 2.75 -12.90625 L 2.84375 -13.28125 C 3.34375 -13.238281 4.113281 -13.21875 5.15625 -13.21875 C 5.757812 -13.21875 6.207031 -13.222656 6.5 -13.234375 L 7.890625 -13.25 C 9.117188 -13.25 10.046875 -13.015625 10.671875 -12.546875 C 11.304688 -12.078125 11.625 -11.429688 11.625 -10.609375 C 11.625 -9.585938 11.179688 -8.703125 10.296875 -7.953125 C 9.410156 -7.203125 8.222656 -6.703125 6.734375 -6.453125 C 6.890625 -6.441406 7.109375 -6.410156 7.390625 -6.359375 C 8.128906 -6.222656 8.660156 -6.003906 8.984375 -5.703125 C 9.304688 -5.398438 9.46875 -4.914062 9.46875 -4.25 C 9.46875 -4.09375 9.460938 -3.96875 9.453125 -3.875 L 9.296875 -1.96875 C 9.285156 -1.882812 9.28125 -1.753906 9.28125 -1.578125 C 9.28125 -0.816406 9.476562 -0.4375 9.875 -0.4375 C 10.09375 -0.4375 10.285156 -0.5625 10.453125 -0.8125 C 10.628906 -1.070312 10.8125 -1.46875 11 -2 Z M 4.375 -6.671875 L 4.9375 -6.671875 C 6.625 -6.671875 7.84375 -7.039062 8.59375 -7.78125 C 9.351562 -8.519531 9.734375 -9.5 9.734375 -10.71875 C 9.734375 -11.457031 9.546875 -12.003906 9.171875 -12.359375 C 8.796875 -12.722656 8.1875 -12.90625 7.34375 -12.90625 C 6.96875 -12.90625 6.675781 -12.859375 6.46875 -12.765625 C 6.257812 -12.671875 6.085938 -12.507812 5.953125 -12.28125 C 5.816406 -12.050781 5.695312 -11.71875 5.59375 -11.28125 Z M 4.375 -6.671875" transform="translate(229.758 198.056)"/></g></g></g><g fill="#D9D9D9"><g><g><path d="M 10.796875 -13.40625 C 10.347656 -12.269531 9.976562 -10.992188 9.6875 -9.578125 L 9.3125 -9.578125 C 9.394531 -9.941406 9.4375 -10.300781 9.4375 -10.65625 C 9.4375 -11.382812 9.21875 -11.988281 8.78125 -12.46875 C 8.34375 -12.945312 7.671875 -13.1875 6.765625 -13.1875 C 5.984375 -13.1875 5.347656 -12.984375 4.859375 -12.578125 C 4.378906 -12.179688 4.140625 -11.585938 4.140625 -10.796875 C 4.140625 -10.179688 4.328125 -9.617188 4.703125 -9.109375 C 5.085938 -8.597656 5.664062 -7.992188 6.4375 -7.296875 C 6.96875 -6.804688 7.394531 -6.378906 7.71875 -6.015625 C 8.050781 -5.648438 8.328125 -5.25 8.546875 -4.8125 C 8.773438 -4.375 8.890625 -3.90625 8.890625 -3.40625 C 8.890625 -2.59375 8.65625 -1.910156 8.1875 -1.359375 C 7.71875 -0.804688 7.117188 -0.394531 6.390625 -0.125 C 5.671875 0.132812 4.921875 0.265625 4.140625 0.265625 C 3.484375 0.265625 2.957031 0.179688 2.5625 0.015625 C 2.164062 -0.140625 1.804688 -0.34375 1.484375 -0.59375 C 1.242188 -0.78125 1.019531 -0.875 0.8125 -0.875 C 0.65625 -0.875 0.523438 -0.800781 0.421875 -0.65625 C 0.328125 -0.507812 0.195312 -0.25 0.03125 0.125 L -0.34375 0.125 C -0.132812 -0.34375 0.0625 -0.910156 0.25 -1.578125 C 0.445312 -2.253906 0.675781 -3.1875 0.9375 -4.375 L 1.3125 -4.375 C 1.195312 -3.78125 1.140625 -3.316406 1.140625 -2.984375 C 1.140625 -2.066406 1.390625 -1.359375 1.890625 -0.859375 C 2.390625 -0.359375 3.160156 -0.109375 4.203125 -0.109375 C 5.046875 -0.109375 5.710938 -0.300781 6.203125 -0.6875 C 6.703125 -1.082031 6.953125 -1.671875 6.953125 -2.453125 C 6.953125 -2.929688 6.859375 -3.367188 6.671875 -3.765625 C 6.484375 -4.171875 6.253906 -4.523438 5.984375 -4.828125 C 5.722656 -5.128906 5.351562 -5.515625 4.875 -5.984375 C 4.375 -6.453125 3.976562 -6.851562 3.6875 -7.1875 C 3.394531 -7.53125 3.144531 -7.925781 2.9375 -8.375 C 2.726562 -8.832031 2.625 -9.332031 2.625 -9.875 C 2.625 -10.65625 2.820312 -11.316406 3.21875 -11.859375 C 3.613281 -12.410156 4.125 -12.828125 4.75 -13.109375 C 5.382812 -13.390625 6.050781 -13.53125 6.75 -13.53125 C 7.257812 -13.53125 7.703125 -13.46875 8.078125 -13.34375 C 8.453125 -13.21875 8.820312 -13.019531 9.1875 -12.75 C 9.488281 -12.519531 9.695312 -12.40625 9.8125 -12.40625 C 9.90625 -12.40625 10 -12.484375 10.09375 -12.640625 C 10.1875 -12.796875 10.296875 -13.050781 10.421875 -13.40625 Z M 10.796875 -13.40625" transform="translate(248.827 198.056)"/></g></g></g><g fill="#D9D9D9"><g><g><path d="M 9.453125 -1.578125 C 9.484375 -1.160156 9.585938 -0.859375 9.765625 -0.671875 C 9.941406 -0.484375 10.144531 -0.382812 10.375 -0.375 L 10.296875 0 C 9.796875 -0.0390625 9.113281 -0.0625 8.25 -0.0625 C 7.238281 -0.0625 6.488281 -0.0390625 6 0 L 6.078125 -0.375 C 6.503906 -0.394531 6.832031 -0.445312 7.0625 -0.53125 C 7.289062 -0.613281 7.453125 -0.765625 7.546875 -0.984375 C 7.648438 -1.203125 7.695312 -1.523438 7.6875 -1.953125 L 7.515625 -5.03125 L 2.90625 -5.03125 L 1.5 -3.03125 C 0.914062 -2.207031 0.625 -1.59375 0.625 -1.1875 C 0.625 -0.664062 1.082031 -0.394531 2 -0.375 L 1.90625 0 C 1.21875 -0.0390625 0.507812 -0.0625 -0.21875 -0.0625 C -0.757812 -0.0625 -1.226562 -0.0390625 -1.625 0 L -1.53125 -0.375 C -0.957031 -0.5 -0.332031 -1.039062 0.34375 -2 L 8.421875 -13.375 L 8.703125 -13.375 Z M 7.5 -5.40625 L 7.1875 -11.078125 L 3.171875 -5.40625 Z M 7.5 -5.40625" transform="translate(260.153 198.056)"/></g></g></g><g fill="#D9D9D9"><g><g><path d="M 8.3125 -13.21875 C 10.0625 -13.21875 11.300781 -13.238281 12.03125 -13.28125 C 11.71875 -12.382812 11.460938 -11.582031 11.265625 -10.875 C 11.140625 -10.414062 11.019531 -9.90625 10.90625 -9.34375 L 10.484375 -9.34375 C 10.617188 -10.132812 10.6875 -10.757812 10.6875 -11.21875 C 10.6875 -11.8125 10.53125 -12.226562 10.21875 -12.46875 C 9.90625 -12.71875 9.34375 -12.84375 8.53125 -12.84375 L 7.53125 -12.84375 C 7.082031 -12.84375 6.75 -12.804688 6.53125 -12.734375 C 6.3125 -12.671875 6.132812 -12.53125 6 -12.3125 C 5.863281 -12.101562 5.734375 -11.757812 5.609375 -11.28125 L 4.375 -6.671875 L 5.734375 -6.671875 C 6.367188 -6.671875 6.84375 -6.859375 7.15625 -7.234375 C 7.46875 -7.617188 7.695312 -8.003906 7.84375 -8.390625 C 7.988281 -8.785156 8.085938 -9.039062 8.140625 -9.15625 L 8.5625 -9.15625 C 8.300781 -8.320312 8.082031 -7.578125 7.90625 -6.921875 L 7.796875 -6.484375 C 7.597656 -5.660156 7.398438 -4.773438 7.203125 -3.828125 L 6.765625 -3.828125 L 6.828125 -4.234375 C 6.890625 -4.578125 6.921875 -4.875 6.921875 -5.125 C 6.921875 -5.5 6.828125 -5.785156 6.640625 -5.984375 C 6.453125 -6.191406 6.117188 -6.296875 5.640625 -6.296875 L 4.28125 -6.296875 L 3.109375 -1.984375 C 3.015625 -1.609375 2.96875 -1.332031 2.96875 -1.15625 C 2.96875 -0.863281 3.082031 -0.664062 3.3125 -0.5625 C 3.539062 -0.457031 3.960938 -0.394531 4.578125 -0.375 L 4.484375 0 C 3.828125 -0.0390625 2.90625 -0.0625 1.71875 -0.0625 C 0.65625 -0.0625 -0.132812 -0.0390625 -0.65625 0 L -0.5625 -0.375 C -0.113281 -0.394531 0.21875 -0.441406 0.4375 -0.515625 C 0.65625 -0.597656 0.832031 -0.742188 0.96875 -0.953125 C 1.113281 -1.171875 1.25 -1.515625 1.375 -1.984375 L 3.859375 -11.28125 C 3.972656 -11.6875 4.03125 -11.992188 4.03125 -12.203125 C 4.03125 -12.460938 3.9375 -12.632812 3.75 -12.71875 C 3.570312 -12.8125 3.25 -12.875 2.78125 -12.90625 L 2.875 -13.28125 C 4.09375 -13.238281 5.90625 -13.21875 8.3125 -13.21875 Z M 8.3125 -13.21875" transform="translate(272.885 198.056)"/></g></g></g><g fill="#D9D9D9"><g><g><path d="M 8.3125 -13.21875 C 10.0625 -13.21875 11.300781 -13.238281 12.03125 -13.28125 C 11.707031 -12.375 11.472656 -11.632812 11.328125 -11.0625 C 11.191406 -10.613281 11.101562 -10.226562 11.0625 -9.90625 L 10.625 -9.90625 C 10.738281 -10.625 10.796875 -11.125 10.796875 -11.40625 C 10.796875 -11.9375 10.65625 -12.304688 10.375 -12.515625 C 10.101562 -12.734375 9.613281 -12.84375 8.90625 -12.84375 L 7.53125 -12.84375 C 7.082031 -12.84375 6.75 -12.804688 6.53125 -12.734375 C 6.3125 -12.671875 6.132812 -12.53125 6 -12.3125 C 5.863281 -12.101562 5.734375 -11.757812 5.609375 -11.28125 L 4.421875 -6.859375 L 5.65625 -6.859375 C 6.09375 -6.859375 6.457031 -6.960938 6.75 -7.171875 C 7.039062 -7.378906 7.265625 -7.617188 7.421875 -7.890625 C 7.585938 -8.171875 7.75 -8.519531 7.90625 -8.9375 C 7.945312 -9.0625 8 -9.195312 8.0625 -9.34375 L 8.5 -9.34375 C 8.226562 -8.507812 8.007812 -7.765625 7.84375 -7.109375 L 7.71875 -6.671875 C 7.550781 -6.015625 7.351562 -5.128906 7.125 -4.015625 L 6.6875 -4.015625 L 6.75 -4.390625 C 6.757812 -4.472656 6.773438 -4.609375 6.796875 -4.796875 C 6.828125 -4.984375 6.84375 -5.144531 6.84375 -5.28125 C 6.84375 -5.65625 6.742188 -5.945312 6.546875 -6.15625 C 6.359375 -6.375 6.023438 -6.484375 5.546875 -6.484375 L 4.3125 -6.484375 L 3.109375 -1.984375 C 2.992188 -1.597656 2.9375 -1.289062 2.9375 -1.0625 C 2.9375 -0.800781 3.03125 -0.628906 3.21875 -0.546875 C 3.40625 -0.472656 3.738281 -0.4375 4.21875 -0.4375 L 5.59375 -0.4375 C 6.363281 -0.4375 6.976562 -0.535156 7.4375 -0.734375 C 7.90625 -0.941406 8.289062 -1.273438 8.59375 -1.734375 C 8.90625 -2.191406 9.222656 -2.863281 9.546875 -3.75 L 9.96875 -3.75 C 9.832031 -3.382812 9.695312 -2.9375 9.5625 -2.40625 C 9.363281 -1.695312 9.195312 -0.894531 9.0625 0 C 8.207031 -0.0390625 6.773438 -0.0625 4.765625 -0.0625 C 2.359375 -0.0625 0.550781 -0.0390625 -0.65625 0 L -0.5625 -0.375 C -0.113281 -0.394531 0.21875 -0.441406 0.4375 -0.515625 C 0.65625 -0.597656 0.832031 -0.742188 0.96875 -0.953125 C 1.113281 -1.171875 1.25 -1.515625 1.375 -1.984375 L 3.859375 -11.28125 C 3.972656 -11.6875 4.03125 -11.992188 4.03125 -12.203125 C 4.03125 -12.460938 3.9375 -12.632812 3.75 -12.71875 C 3.570312 -12.8125 3.25 -12.875 2.78125 -12.90625 L 2.875 -13.28125 C 4.09375 -13.238281 5.90625 -13.21875 8.3125 -13.21875 Z M 8.3125 -13.21875" transform="translate(284.436 198.056)"/></g></g></g><g fill="#D9D9D9"><g><g><path d="M 14.40625 -15.3125 C 14.675781 -15.3125 14.882812 -15.226562 15.03125 -15.0625 C 15.175781 -14.894531 15.25 -14.679688 15.25 -14.421875 C 15.25 -14.140625 15.164062 -13.882812 15 -13.65625 C 14.832031 -13.425781 14.617188 -13.226562 14.359375 -13.0625 C 13.703125 -12.65625 12.71875 -12.453125 11.40625 -12.453125 C 10.851562 -12.453125 10.210938 -12.492188 9.484375 -12.578125 L 6.71875 -2.171875 C 6.601562 -1.785156 6.546875 -1.46875 6.546875 -1.21875 C 6.546875 -0.90625 6.660156 -0.6875 6.890625 -0.5625 C 7.117188 -0.445312 7.53125 -0.382812 8.125 -0.375 L 8.046875 0 C 7.390625 -0.0390625 6.457031 -0.0625 5.25 -0.0625 C 4.019531 -0.0625 3.109375 -0.0390625 2.515625 0 L 2.59375 -0.375 C 3.113281 -0.394531 3.519531 -0.457031 3.8125 -0.5625 C 4.101562 -0.675781 4.332031 -0.851562 4.5 -1.09375 C 4.664062 -1.34375 4.820312 -1.703125 4.96875 -2.171875 L 7.796875 -12.8125 C 6.785156 -12.945312 5.976562 -13.015625 5.375 -13.015625 C 4.289062 -13.015625 3.59375 -12.90625 3.28125 -12.6875 C 3.382812 -12.550781 3.46875 -12.382812 3.53125 -12.1875 C 3.59375 -11.988281 3.625 -11.796875 3.625 -11.609375 C 3.625 -11.316406 3.539062 -11.0625 3.375 -10.84375 C 3.207031 -10.625 2.976562 -10.515625 2.6875 -10.515625 C 2.414062 -10.515625 2.207031 -10.597656 2.0625 -10.765625 C 1.925781 -10.941406 1.859375 -11.171875 1.859375 -11.453125 C 1.859375 -12.109375 2.1875 -12.597656 2.84375 -12.921875 C 3.4375 -13.203125 4.273438 -13.34375 5.359375 -13.34375 C 5.859375 -13.34375 6.332031 -13.320312 6.78125 -13.28125 C 7.238281 -13.238281 7.8125 -13.175781 8.5 -13.09375 C 9.144531 -13 9.6875 -12.929688 10.125 -12.890625 C 10.570312 -12.847656 11.039062 -12.828125 11.53125 -12.828125 C 12.09375 -12.828125 12.5625 -12.859375 12.9375 -12.921875 C 13.3125 -12.984375 13.648438 -13.085938 13.953125 -13.234375 C 13.640625 -13.546875 13.484375 -13.894531 13.484375 -14.28125 C 13.484375 -14.5625 13.5625 -14.800781 13.71875 -15 C 13.875 -15.207031 14.101562 -15.3125 14.40625 -15.3125 Z M 14.40625 -15.3125" transform="translate(296.811 198.056)"/></g></g></g><g fill="#D9D9D9"><g><g><path d="M 13.125 -13.53125 C 13.488281 -13.53125 13.753906 -13.4375 13.921875 -13.25 C 14.085938 -13.0625 14.171875 -12.828125 14.171875 -12.546875 C 14.171875 -12.234375 14.078125 -11.9375 13.890625 -11.65625 C 13.703125 -11.375 13.425781 -11.234375 13.0625 -11.234375 C 12.8125 -11.234375 12.628906 -11.300781 12.515625 -11.4375 C 12.410156 -11.582031 12.359375 -11.765625 12.359375 -11.984375 C 12.359375 -12.179688 12.410156 -12.382812 12.515625 -12.59375 C 12.628906 -12.800781 12.773438 -12.984375 12.953125 -13.140625 L 12.90625 -13.140625 C 12.5625 -13.128906 12.21875 -12.992188 11.875 -12.734375 C 11.21875 -12.253906 10.507812 -11.484375 9.75 -10.421875 C 9 -9.367188 8.273438 -8.007812 7.578125 -6.34375 L 6.484375 -1.984375 C 6.390625 -1.554688 6.34375 -1.257812 6.34375 -1.09375 C 6.34375 -0.8125 6.429688 -0.625 6.609375 -0.53125 C 6.785156 -0.445312 7.113281 -0.394531 7.59375 -0.375 L 7.5 0 C 6.9375 -0.0390625 6.160156 -0.0625 5.171875 -0.0625 C 4.085938 -0.0625 3.269531 -0.0390625 2.71875 0 L 2.8125 -0.375 C 3.257812 -0.394531 3.59375 -0.441406 3.8125 -0.515625 C 4.039062 -0.597656 4.222656 -0.75 4.359375 -0.96875 C 4.503906 -1.1875 4.632812 -1.523438 4.75 -1.984375 L 5.84375 -6.359375 C 5.644531 -8.128906 5.375 -9.59375 5.03125 -10.75 C 4.695312 -11.914062 4.238281 -12.5 3.65625 -12.5 C 3.445312 -12.5 3.269531 -12.429688 3.125 -12.296875 C 2.976562 -12.160156 2.851562 -11.9375 2.75 -11.625 L 2.234375 -10.09375 L 1.8125 -10.09375 L 2.4375 -11.90625 C 2.632812 -12.488281 2.859375 -12.90625 3.109375 -13.15625 C 3.367188 -13.40625 3.757812 -13.53125 4.28125 -13.53125 C 4.9375 -13.53125 5.46875 -13.257812 5.875 -12.71875 C 6.28125 -12.1875 6.59375 -11.4375 6.8125 -10.46875 C 7.039062 -9.507812 7.238281 -8.269531 7.40625 -6.75 C 7.863281 -7.914062 8.394531 -8.96875 9 -9.90625 C 9.601562 -10.84375 10.238281 -11.644531 10.90625 -12.3125 C 11.71875 -13.125 12.457031 -13.53125 13.125 -13.53125 Z M 13.125 -13.53125" transform="translate(310.106 198.056)"/></g></g></g><g fill="#D9D9D9"><g><g><path d="M 13.203125 -9.125 C 13.203125 -7.5625 12.8125 -6.078125 12.03125 -4.671875 C 11.257812 -3.265625 10.195312 -2.132812 8.84375 -1.28125 C 7.488281 -0.425781 5.976562 0 4.3125 0 L 3.21875 -0.015625 C 2.519531 -0.046875 2.007812 -0.0625 1.6875 -0.0625 C 0.675781 -0.0625 -0.0703125 -0.0390625 -0.5625 0 L -0.5 -0.375 C -0.0820312 -0.394531 0.234375 -0.441406 0.453125 -0.515625 C 0.671875 -0.597656 0.847656 -0.75 0.984375 -0.96875 C 1.117188 -1.1875 1.25 -1.523438 1.375 -1.984375 L 3.828125 -11.28125 C 3.941406 -11.757812 4 -12.066406 4 -12.203125 C 4 -12.453125 3.90625 -12.625 3.71875 -12.71875 C 3.539062 -12.820312 3.210938 -12.882812 2.734375 -12.90625 L 2.796875 -13.28125 C 3.222656 -13.238281 3.828125 -13.21875 4.609375 -13.21875 L 6.203125 -13.234375 C 7.054688 -13.265625 7.625 -13.28125 7.90625 -13.28125 C 9.675781 -13.28125 11 -12.925781 11.875 -12.21875 C 12.757812 -11.519531 13.203125 -10.488281 13.203125 -9.125 Z M 4.09375 -0.34375 C 5.632812 -0.34375 6.957031 -0.765625 8.0625 -1.609375 C 9.164062 -2.453125 10 -3.578125 10.5625 -4.984375 C 11.125 -6.398438 11.40625 -7.9375 11.40625 -9.59375 C 11.40625 -10.738281 11.082031 -11.582031 10.4375 -12.125 C 9.800781 -12.664062 8.785156 -12.9375 7.390625 -12.9375 C 7.003906 -12.9375 6.703125 -12.890625 6.484375 -12.796875 C 6.265625 -12.710938 6.082031 -12.554688 5.9375 -12.328125 C 5.800781 -12.109375 5.675781 -11.773438 5.5625 -11.328125 L 3.109375 -1.953125 C 2.992188 -1.503906 2.9375 -1.195312 2.9375 -1.03125 C 2.9375 -0.789062 3.019531 -0.613281 3.1875 -0.5 C 3.363281 -0.394531 3.664062 -0.34375 4.09375 -0.34375 Z M 4.09375 -0.34375" transform="translate(202.943 224.306)"/></g></g></g><g fill="#D9D9D9"><g><g><path d="M 11.09375 -2.265625 L 11.53125 -2.265625 L 11.453125 -2.03125 C 11.234375 -1.238281 10.953125 -0.65625 10.609375 -0.28125 C 10.265625 0.0820312 9.800781 0.265625 9.21875 0.265625 C 8.632812 0.265625 8.195312 0.09375 7.90625 -0.25 C 7.625 -0.601562 7.5 -1.03125 7.53125 -1.53125 L 7.6875 -3.640625 C 7.695312 -3.785156 7.703125 -3.984375 7.703125 -4.234375 C 7.703125 -4.765625 7.609375 -5.171875 7.421875 -5.453125 C 7.234375 -5.742188 6.890625 -5.953125 6.390625 -6.078125 C 5.898438 -6.210938 5.1875 -6.285156 4.25 -6.296875 L 3.109375 -1.984375 C 2.992188 -1.609375 2.9375 -1.300781 2.9375 -1.0625 C 2.9375 -0.8125 3.023438 -0.632812 3.203125 -0.53125 C 3.390625 -0.4375 3.726562 -0.382812 4.21875 -0.375 L 4.140625 0 C 3.566406 -0.0390625 2.789062 -0.0625 1.8125 -0.0625 C 0.71875 -0.0625 -0.09375 -0.0390625 -0.625 0 L -0.546875 -0.375 C -0.0976562 -0.394531 0.238281 -0.441406 0.46875 -0.515625 C 0.695312 -0.597656 0.875 -0.742188 1 -0.953125 C 1.132812 -1.171875 1.265625 -1.515625 1.390625 -1.984375 L 3.859375 -11.28125 C 3.972656 -11.707031 4.03125 -12.003906 4.03125 -12.171875 C 4.03125 -12.429688 3.9375 -12.613281 3.75 -12.71875 C 3.5625 -12.820312 3.226562 -12.882812 2.75 -12.90625 L 2.84375 -13.28125 C 3.34375 -13.238281 4.113281 -13.21875 5.15625 -13.21875 C 5.757812 -13.21875 6.207031 -13.222656 6.5 -13.234375 L 7.890625 -13.25 C 9.117188 -13.25 10.046875 -13.015625 10.671875 -12.546875 C 11.304688 -12.078125 11.625 -11.429688 11.625 -10.609375 C 11.625 -9.585938 11.179688 -8.703125 10.296875 -7.953125 C 9.410156 -7.203125 8.222656 -6.703125 6.734375 -6.453125 C 6.890625 -6.441406 7.109375 -6.410156 7.390625 -6.359375 C 8.128906 -6.222656 8.660156 -6.003906 8.984375 -5.703125 C 9.304688 -5.398438 9.46875 -4.914062 9.46875 -4.25 C 9.46875 -4.09375 9.460938 -3.96875 9.453125 -3.875 L 9.296875 -1.96875 C 9.285156 -1.882812 9.28125 -1.753906 9.28125 -1.578125 C 9.28125 -0.816406 9.476562 -0.4375 9.875 -0.4375 C 10.09375 -0.4375 10.285156 -0.5625 10.453125 -0.8125 C 10.628906 -1.070312 10.8125 -1.46875 11 -2 Z M 4.375 -6.671875 L 4.9375 -6.671875 C 6.625 -6.671875 7.84375 -7.039062 8.59375 -7.78125 C 9.351562 -8.519531 9.734375 -9.5 9.734375 -10.71875 C 9.734375 -11.457031 9.546875 -12.003906 9.171875 -12.359375 C 8.796875 -12.722656 8.1875 -12.90625 7.34375 -12.90625 C 6.96875 -12.90625 6.675781 -12.859375 6.46875 -12.765625 C 6.257812 -12.671875 6.085938 -12.507812 5.953125 -12.28125 C 5.816406 -12.050781 5.695312 -11.71875 5.59375 -11.28125 Z M 4.375 -6.671875" transform="translate(217.475 224.306)"/></g></g></g><g fill="#D9D9D9"><g><g><path d="M 3.109375 -1.984375 C 2.992188 -1.515625 2.9375 -1.207031 2.9375 -1.0625 C 2.9375 -0.800781 3.023438 -0.625 3.203125 -0.53125 C 3.390625 -0.445312 3.726562 -0.394531 4.21875 -0.375 L 4.140625 0 C 3.566406 -0.0390625 2.773438 -0.0625 1.765625 -0.0625 C 0.710938 -0.0625 -0.0820312 -0.0390625 -0.625 0 L -0.53125 -0.375 C -0.09375 -0.394531 0.234375 -0.441406 0.453125 -0.515625 C 0.671875 -0.597656 0.847656 -0.75 0.984375 -0.96875 C 1.117188 -1.1875 1.25 -1.523438 1.375 -1.984375 L 3.84375 -11.28125 C 3.945312 -11.707031 4 -12.007812 4 -12.1875 C 4 -12.457031 3.90625 -12.632812 3.71875 -12.71875 C 3.539062 -12.8125 3.210938 -12.875 2.734375 -12.90625 L 2.828125 -13.28125 C 3.335938 -13.238281 4.132812 -13.21875 5.21875 -13.21875 C 6.21875 -13.21875 7.015625 -13.238281 7.609375 -13.28125 L 7.515625 -12.90625 C 7.054688 -12.875 6.71875 -12.820312 6.5 -12.75 C 6.28125 -12.675781 6.101562 -12.53125 5.96875 -12.3125 C 5.84375 -12.101562 5.71875 -11.757812 5.59375 -11.28125 Z M 3.109375 -1.984375" transform="translate(230.863 224.306)"/></g></g></g><g fill="#D9D9D9"><g><g><path d="M 12.484375 -13.21875 C 13.035156 -13.21875 13.507812 -13.238281 13.90625 -13.28125 L 13.8125 -12.90625 C 13.15625 -12.757812 12.523438 -12.210938 11.921875 -11.265625 L 4.53125 0.09375 L 4.25 0.09375 L 2.78125 -11.703125 C 2.726562 -12.109375 2.601562 -12.40625 2.40625 -12.59375 C 2.21875 -12.78125 2.015625 -12.882812 1.796875 -12.90625 L 1.890625 -13.28125 C 2.378906 -13.238281 3.054688 -13.21875 3.921875 -13.21875 C 4.878906 -13.21875 5.628906 -13.238281 6.171875 -13.28125 L 6.078125 -12.90625 C 5.671875 -12.875 5.363281 -12.832031 5.15625 -12.78125 C 4.957031 -12.738281 4.800781 -12.640625 4.6875 -12.484375 C 4.582031 -12.335938 4.53125 -12.109375 4.53125 -11.796875 C 4.53125 -11.703125 4.546875 -11.546875 4.578125 -11.328125 L 5.640625 -2.265625 L 10.84375 -10.234375 C 11.375 -11.078125 11.640625 -11.695312 11.640625 -12.09375 C 11.640625 -12.363281 11.523438 -12.5625 11.296875 -12.6875 C 11.066406 -12.8125 10.71875 -12.882812 10.25 -12.90625 L 10.34375 -13.28125 C 11.03125 -13.238281 11.742188 -13.21875 12.484375 -13.21875 Z M 12.484375 -13.21875" transform="translate(238.195 224.306)"/></g></g></g><g fill="#D9D9D9"><g><g><path d="M 8.3125 -13.21875 C 10.0625 -13.21875 11.300781 -13.238281 12.03125 -13.28125 C 11.707031 -12.375 11.472656 -11.632812 11.328125 -11.0625 C 11.191406 -10.613281 11.101562 -10.226562 11.0625 -9.90625 L 10.625 -9.90625 C 10.738281 -10.625 10.796875 -11.125 10.796875 -11.40625 C 10.796875 -11.9375 10.65625 -12.304688 10.375 -12.515625 C 10.101562 -12.734375 9.613281 -12.84375 8.90625 -12.84375 L 7.53125 -12.84375 C 7.082031 -12.84375 6.75 -12.804688 6.53125 -12.734375 C 6.3125 -12.671875 6.132812 -12.53125 6 -12.3125 C 5.863281 -12.101562 5.734375 -11.757812 5.609375 -11.28125 L 4.421875 -6.859375 L 5.65625 -6.859375 C 6.09375 -6.859375 6.457031 -6.960938 6.75 -7.171875 C 7.039062 -7.378906 7.265625 -7.617188 7.421875 -7.890625 C 7.585938 -8.171875 7.75 -8.519531 7.90625 -8.9375 C 7.945312 -9.0625 8 -9.195312 8.0625 -9.34375 L 8.5 -9.34375 C 8.226562 -8.507812 8.007812 -7.765625 7.84375 -7.109375 L 7.71875 -6.671875 C 7.550781 -6.015625 7.351562 -5.128906 7.125 -4.015625 L 6.6875 -4.015625 L 6.75 -4.390625 C 6.757812 -4.472656 6.773438 -4.609375 6.796875 -4.796875 C 6.828125 -4.984375 6.84375 -5.144531 6.84375 -5.28125 C 6.84375 -5.65625 6.742188 -5.945312 6.546875 -6.15625 C 6.359375 -6.375 6.023438 -6.484375 5.546875 -6.484375 L 4.3125 -6.484375 L 3.109375 -1.984375 C 2.992188 -1.597656 2.9375 -1.289062 2.9375 -1.0625 C 2.9375 -0.800781 3.03125 -0.628906 3.21875 -0.546875 C 3.40625 -0.472656 3.738281 -0.4375 4.21875 -0.4375 L 5.59375 -0.4375 C 6.363281 -0.4375 6.976562 -0.535156 7.4375 -0.734375 C 7.90625 -0.941406 8.289062 -1.273438 8.59375 -1.734375 C 8.90625 -2.191406 9.222656 -2.863281 9.546875 -3.75 L 9.96875 -3.75 C 9.832031 -3.382812 9.695312 -2.9375 9.5625 -2.40625 C 9.363281 -1.695312 9.195312 -0.894531 9.0625 0 C 8.207031 -0.0390625 6.773438 -0.0625 4.765625 -0.0625 C 2.359375 -0.0625 0.550781 -0.0390625 -0.65625 0 L -0.5625 -0.375 C -0.113281 -0.394531 0.21875 -0.441406 0.4375 -0.515625 C 0.65625 -0.597656 0.832031 -0.742188 0.96875 -0.953125 C 1.113281 -1.171875 1.25 -1.515625 1.375 -1.984375 L 3.859375 -11.28125 C 3.972656 -11.6875 4.03125 -11.992188 4.03125 -12.203125 C 4.03125 -12.460938 3.9375 -12.632812 3.75 -12.71875 C 3.570312 -12.8125 3.25 -12.875 2.78125 -12.90625 L 2.875 -13.28125 C 4.09375 -13.238281 5.90625 -13.21875 8.3125 -13.21875 Z M 8.3125 -13.21875" transform="translate(250.983 224.306)"/></g></g></g></svg>